<svg id="Layer_1" data-name="Layer 1" xmlns="http://www.w3.org/2000/svg" xmlns:xlink="http://www.w3.org/1999/xlink" width="850" height="850" viewBox="0 0 850 850"><defs><style>.cls-1,.cls-2{fill:none;stroke-miterlimit:10;stroke-width:10px;}.cls-1{stroke:url(#linear-gradient);}.cls-2{stroke:url(#linear-gradient-2);}</style><linearGradient id="linear-gradient" x1="30" y1="438.0001" x2="826.2229" y2="438.0001" gradientUnits="userSpaceOnUse"><stop offset="0" stop-color="#453634"/><stop offset="0.2337" stop-color="#a36840"/><stop offset="0.4162" stop-color="#e8df56"/><stop offset="0.4935" stop-color="#fdfcb3"/><stop offset="0.5763" stop-color="#e8df56"/><stop offset="0.7961" stop-color="#99543c"/><stop offset="1" stop-color="#453634"/></linearGradient><linearGradient id="linear-gradient-2" x1="24.5372" y1="407.6577" x2="820.5372" y2="407.6577" xlink:href="#linear-gradient"/></defs><title>logo border</title><path class="cls-1" d="M30,642c26.3355,0,47.6847,21.0426,47.6847,47H773.3153C799.6508,689,821,667.9715,821,642.0314c0,0,.2229-365.21.2229-397.7163C778.5946,244.4128,744,216.476,744,182"/><path class="cls-2" d="M106.5372,660.3153c0-34.42-34.51-62.3034-77-62.1279V207.6847A47.6847,47.6847,0,0,1,77.2219,160H772.8524a47.6848,47.6848,0,0,0,47.6848,47.6847"/></svg>