<svg width="25" height="25" viewBox="0 0 25 25" fill="none" xmlns="http://www.w3.org/2000/svg">
<path d="M20.3125 0C21.6037 0 22.7078 0.458442 23.6247 1.37533C24.5416 2.29221 25 3.39627 25 4.6875V20.3125C25 21.6037 24.5416 22.7078 23.6247 23.6247C22.7078 24.5416 21.6037 25 20.3125 25H17.2526V15.3158H20.4915L20.9798 11.5397H17.2526V9.13086C17.2526 8.52322 17.3801 8.06749 17.6351 7.76367C17.8901 7.45985 18.3865 7.30794 19.1243 7.30794L21.11 7.29167V3.92253C20.4264 3.82487 19.4607 3.77604 18.2129 3.77604C16.7372 3.77604 15.5572 4.21007 14.6729 5.07813C13.7885 5.94618 13.3464 7.17231 13.3464 8.75651V11.5397H10.0911V15.3158H13.3464V25H4.6875C3.39627 25 2.29221 24.5416 1.37533 23.6247C0.458442 22.7078 0 21.6037 0 20.3125V4.6875C0 3.39627 0.458442 2.29221 1.37533 1.37533C2.29221 0.458442 3.39627 0 4.6875 0H20.3125Z" fill="white"/>
</svg>
