<svg width="30" height="30" viewBox="0 0 30 30" fill="none" xmlns="http://www.w3.org/2000/svg">
<mask id="path-1-inside-1" fill="white">
<path d="M15.0001 0C12.4909 0.0324901 10.0314 0.704036 7.85378 1.95123C5.6762 3.19842 3.8524 4.9801 2.5546 7.12803H2.5227V7.17153C0.947915 9.48406 0.0721392 12.2011 0 14.9981C0.071962 17.7954 0.947745 20.5128 2.5227 22.8256V22.872H2.5546C3.85236 25.0199 5.67615 26.8016 7.85374 28.0488C10.0313 29.296 12.4909 29.9676 15.0001 30C17.5092 29.9675 19.9687 29.296 22.1463 28.0488C24.3239 26.8016 26.1476 25.0199 27.4454 22.872H27.4744V22.8285C29.0509 20.5154 29.9277 17.7971 30 14.9987C29.9277 12.2003 29.0509 9.48201 27.4744 7.16888V7.12803H27.4454C26.1476 4.98012 24.3238 3.19846 22.1463 1.95127C19.9687 0.704079 17.5092 0.0325192 15.0001 0ZM14.2574 1.63561V7.12803H9.0702C9.50627 5.51627 10.0329 3.93039 10.6476 2.37796C11.8095 1.9601 13.025 1.71014 14.2574 1.63561ZM15.7421 1.63561C16.9304 1.70784 18.1032 1.94299 19.2275 2.33446C19.8496 3.90078 20.3822 5.50122 20.8225 7.12803H15.7423L15.7421 1.63561ZM21.1009 3.14084C22.9124 4.10871 24.4831 5.47144 25.6969 7.12825H22.3767C22.0342 5.80574 21.5875 4.47539 21.1009 3.14084ZM8.76574 3.20708C8.28906 4.51944 7.84948 5.82726 7.51311 7.1277H4.30311C5.48656 5.51063 7.00979 4.1724 8.76574 3.20708ZM3.30273 8.61283H7.15919C6.75235 10.4704 6.50491 12.3593 6.41956 14.259H1.63547C1.75864 12.2754 2.3286 10.3452 3.30273 8.61283ZM8.66418 8.61283H14.2574V14.259H7.88712C7.97629 12.3575 8.23636 10.4678 8.66418 8.61283ZM15.7423 8.61283H21.2289C21.6567 10.4678 21.9168 12.3575 22.0059 14.259H15.7423V8.61283ZM22.7302 8.61283H26.6969C27.671 10.3452 28.2408 12.2754 28.3639 14.259H23.4699C23.3846 12.3593 23.1372 10.4704 22.7305 8.61283H22.7302ZM1.63547 15.7437H6.3934C6.40188 17.639 6.58644 19.5293 6.9447 21.3904H3.30273C2.32856 19.6579 1.75861 17.7275 1.63547 15.7437ZM7.85809 15.7437H14.2574V21.3904H8.44383C8.06332 19.532 7.86712 17.6406 7.85809 15.7437ZM15.7423 15.7437H22.0347C22.0258 17.6405 21.8296 19.5317 21.449 21.3899H15.7423V15.7437ZM23.496 15.7437H28.3643C28.2412 17.7274 27.6714 19.6575 26.6974 21.3899H22.948C23.3053 19.5289 23.4887 17.6387 23.496 15.7437ZM4.30311 22.8746H7.27267C7.57575 24.1301 7.94944 25.3675 8.39195 26.5808C6.79301 25.6339 5.40216 24.3732 4.30311 22.8746ZM8.78605 22.8746H14.2574V28.3671C12.9204 28.287 11.6038 28.0003 10.3545 27.517C9.72261 26.0086 9.19848 24.4572 8.78605 22.8746ZM15.7423 22.8746H21.1068C20.6896 24.4736 20.1586 26.0407 19.5177 27.5639C18.3063 28.0184 17.0337 28.2892 15.7422 28.3671L15.7423 22.8746ZM22.6198 22.8746H25.6963C24.5673 24.4189 23.1285 25.7108 21.4721 26.6676C21.9276 25.4265 22.311 24.16 22.6204 22.8746H22.6198Z"/>
</mask>
<path d="M15.0001 0C12.4909 0.0324901 10.0314 0.704036 7.85378 1.95123C5.6762 3.19842 3.8524 4.9801 2.5546 7.12803H2.5227V7.17153C0.947915 9.48406 0.0721392 12.2011 0 14.9981C0.071962 17.7954 0.947745 20.5128 2.5227 22.8256V22.872H2.5546C3.85236 25.0199 5.67615 26.8016 7.85374 28.0488C10.0313 29.296 12.4909 29.9676 15.0001 30C17.5092 29.9675 19.9687 29.296 22.1463 28.0488C24.3239 26.8016 26.1476 25.0199 27.4454 22.872H27.4744V22.8285C29.0509 20.5154 29.9277 17.7971 30 14.9987C29.9277 12.2003 29.0509 9.48201 27.4744 7.16888V7.12803H27.4454C26.1476 4.98012 24.3238 3.19846 22.1463 1.95127C19.9687 0.704079 17.5092 0.0325192 15.0001 0ZM14.2574 1.63561V7.12803H9.0702C9.50627 5.51627 10.0329 3.93039 10.6476 2.37796C11.8095 1.9601 13.025 1.71014 14.2574 1.63561ZM15.7421 1.63561C16.9304 1.70784 18.1032 1.94299 19.2275 2.33446C19.8496 3.90078 20.3822 5.50122 20.8225 7.12803H15.7423L15.7421 1.63561ZM21.1009 3.14084C22.9124 4.10871 24.4831 5.47144 25.6969 7.12825H22.3767C22.0342 5.80574 21.5875 4.47539 21.1009 3.14084ZM8.76574 3.20708C8.28906 4.51944 7.84948 5.82726 7.51311 7.1277H4.30311C5.48656 5.51063 7.00979 4.1724 8.76574 3.20708ZM3.30273 8.61283H7.15919C6.75235 10.4704 6.50491 12.3593 6.41956 14.259H1.63547C1.75864 12.2754 2.3286 10.3452 3.30273 8.61283ZM8.66418 8.61283H14.2574V14.259H7.88712C7.97629 12.3575 8.23636 10.4678 8.66418 8.61283ZM15.7423 8.61283H21.2289C21.6567 10.4678 21.9168 12.3575 22.0059 14.259H15.7423V8.61283ZM22.7302 8.61283H26.6969C27.671 10.3452 28.2408 12.2754 28.3639 14.259H23.4699C23.3846 12.3593 23.1372 10.4704 22.7305 8.61283H22.7302ZM1.63547 15.7437H6.3934C6.40188 17.639 6.58644 19.5293 6.9447 21.3904H3.30273C2.32856 19.6579 1.75861 17.7275 1.63547 15.7437ZM7.85809 15.7437H14.2574V21.3904H8.44383C8.06332 19.532 7.86712 17.6406 7.85809 15.7437ZM15.7423 15.7437H22.0347C22.0258 17.6405 21.8296 19.5317 21.449 21.3899H15.7423V15.7437ZM23.496 15.7437H28.3643C28.2412 17.7274 27.6714 19.6575 26.6974 21.3899H22.948C23.3053 19.5289 23.4887 17.6387 23.496 15.7437ZM4.30311 22.8746H7.27267C7.57575 24.1301 7.94944 25.3675 8.39195 26.5808C6.79301 25.6339 5.40216 24.3732 4.30311 22.8746ZM8.78605 22.8746H14.2574V28.3671C12.9204 28.287 11.6038 28.0003 10.3545 27.517C9.72261 26.0086 9.19848 24.4572 8.78605 22.8746ZM15.7423 22.8746H21.1068C20.6896 24.4736 20.1586 26.0407 19.5177 27.5639C18.3063 28.0184 17.0337 28.2892 15.7422 28.3671L15.7423 22.8746ZM22.6198 22.8746H25.6963C24.5673 24.4189 23.1285 25.7108 21.4721 26.6676C21.9276 25.4265 22.311 24.16 22.6204 22.8746H22.6198Z" fill="white"/>
<path d="M2.5546 7.12803V10.128H4.24705L5.1223 8.67946L2.5546 7.12803ZM2.5227 7.12803V4.12803H-0.477305V7.12803H2.5227ZM2.5227 7.17153L5.00235 8.86011L5.5227 8.09599V7.17153H2.5227ZM0 14.9981L-2.999 14.9207L-3.001 14.998L-2.99901 15.0752L0 14.9981ZM2.5227 22.8256H5.5227V21.9011L5.00236 21.137L2.5227 22.8256ZM2.5227 22.872H-0.477305V25.872H2.5227V22.872ZM2.5546 22.872L5.12233 21.3206L4.2471 19.872H2.5546V22.872ZM15.0001 30L14.9613 32.9997L15.0001 33.0003L15.0389 32.9997L15.0001 30ZM27.4454 22.872V19.872H25.7529L24.8777 21.3206L27.4454 22.872ZM27.4744 22.872V25.872H30.4744V22.872H27.4744ZM27.4744 22.8285L24.9954 21.139L24.4744 21.9034V22.8285H27.4744ZM30 14.9987L32.999 15.0762L33.001 14.9987L32.999 14.9212L30 14.9987ZM27.4744 7.16888H24.4744V8.09395L24.9954 8.85837L27.4744 7.16888ZM27.4744 7.12803H30.4744V4.12803H27.4744V7.12803ZM27.4454 7.12803L24.8777 8.67947L25.753 10.128H27.4454V7.12803ZM14.2574 7.12803V10.128H17.2574V7.12803H14.2574ZM9.0702 7.12803L6.17432 6.34453L5.15067 10.128H9.0702V7.12803ZM10.6476 2.37796L9.63234 -0.445025L8.35718 0.0135764L7.8583 1.27352L10.6476 2.37796ZM15.7421 1.63561L15.9241 -1.35886L12.742 -1.55227L12.7421 1.63573L15.7421 1.63561ZM19.2275 2.33446L22.0157 1.22709L21.5094 -0.0476862L20.214 -0.498714L19.2275 2.33446ZM20.8225 7.12803V10.128H24.7425L23.7183 6.34419L20.8225 7.12803ZM15.7423 7.12803L12.7423 7.12815L12.7425 10.128H15.7423V7.12803ZM21.1009 3.14084L22.5147 0.494854L15.5947 -3.20253L18.2824 4.16854L21.1009 3.14084ZM25.6969 7.12825V10.1282H31.6137L28.1169 5.35526L25.6969 7.12825ZM22.3767 7.12825L19.4726 7.88047L20.0548 10.1282H22.3767V7.12825ZM7.51311 7.1277V10.1277H9.83587L10.4175 7.87894L7.51311 7.1277ZM4.30311 7.1277L1.88218 5.35594L-1.61003 10.1277H4.30311V7.1277ZM7.15919 8.61283L10.0897 9.25466L10.8873 5.61283H7.15919V8.61283ZM6.41956 14.259V17.259H9.2878L9.41654 14.3937L6.41956 14.259ZM1.63547 14.259L-1.35876 14.0731L-1.55658 17.259H1.63547V14.259ZM14.2574 8.61283H17.2574V5.61283H14.2574V8.61283ZM14.2574 14.259V17.259H17.2574V14.259H14.2574ZM7.88712 14.259L4.89041 14.1185L4.74314 17.259H7.88712V14.259ZM15.7423 8.61283V5.61283H12.7423V8.61283H15.7423ZM21.2289 8.61283L24.1521 7.93854L23.6156 5.61283H21.2289V8.61283ZM22.0059 14.259V17.259H25.1498L25.0026 14.1186L22.0059 14.259ZM15.7423 14.259H12.7423V17.259H15.7423V14.259ZM26.6969 8.61283L29.312 7.14256L28.4519 5.61283H26.6969V8.61283ZM28.3639 14.259V17.259H31.5558L31.3581 14.0733L28.3639 14.259ZM23.4699 14.259L20.473 14.3937L20.6017 17.259H23.4699V14.259ZM22.7305 8.61283L25.6611 7.9712L25.1448 5.61283H22.7305V8.61283ZM6.3934 15.7437L9.39337 15.7303L9.37999 12.7437H6.3934V15.7437ZM6.9447 21.3904V24.3904H10.5773L9.89061 20.8233L6.9447 21.3904ZM3.30273 21.3904L0.687768 22.8607L1.54786 24.3904H3.30273V21.3904ZM14.2574 15.7437H17.2574V12.7437H14.2574V15.7437ZM14.2574 21.3904V24.3904H17.2574V21.3904H14.2574ZM8.44383 21.3904L5.50481 21.9922L5.99586 24.3904H8.44383V21.3904ZM15.7423 15.7437V12.7437H12.7423V15.7437H15.7423ZM22.0347 15.7437L25.0347 15.7579L25.0489 12.7437H22.0347V15.7437ZM21.449 21.3899V24.3899H23.8968L24.388 21.9919L21.449 21.3899ZM15.7423 21.3899H12.7423V24.3899H15.7423V21.3899ZM28.3643 15.7437L31.3586 15.9295L31.5563 12.7437H28.3643V15.7437ZM26.6974 21.3899V24.3899H28.4524L29.3124 22.8602L26.6974 21.3899ZM22.948 21.3899L20.0018 20.8243L19.3173 24.3899H22.948V21.3899ZM7.27267 22.8746L10.1889 22.1706L9.63463 19.8746H7.27267V22.8746ZM8.39195 26.5808L6.8632 29.1621L14.0868 33.4403L11.2104 25.553L8.39195 26.5808ZM14.2574 22.8746H17.2574V19.8746H14.2574V22.8746ZM14.2574 28.3671L14.078 31.3618L17.2574 31.5523V28.3671H14.2574ZM10.3545 27.517L7.58748 28.6762L8.08099 29.8542L9.27224 30.315L10.3545 27.517ZM15.7423 22.8746V19.8746H12.7424L12.7423 22.8746L15.7423 22.8746ZM21.1068 22.8746L24.0096 23.6319L24.9898 19.8746H21.1068V22.8746ZM19.5177 27.5639L20.5716 30.3726L21.7816 29.9186L22.2828 28.7274L19.5177 27.5639ZM15.7422 28.3671L12.7422 28.3671L12.7422 31.5538L15.9231 31.3617L15.7422 28.3671ZM25.6963 22.8746L28.1181 24.6452L31.6061 19.8746H25.6963V22.8746ZM21.4721 26.6676L18.6557 25.634L15.8031 33.4068L22.9726 29.2654L21.4721 26.6676ZM22.6204 22.8746L25.5371 23.5767L26.4281 19.8746H22.6204V22.8746ZM14.9612 -2.99975C11.9421 -2.96066 8.98285 -2.15264 6.36279 -0.652029L9.34477 4.55448C11.0799 3.56072 13.0396 3.02564 15.0389 2.99975L14.9612 -2.99975ZM6.36279 -0.652029C3.74273 0.848586 1.54838 2.99228 -0.0130977 5.5766L5.1223 8.67946C6.15642 6.96792 7.60967 5.54825 9.34477 4.55448L6.36279 -0.652029ZM2.5546 4.12803H2.5227V10.128H2.5546V4.12803ZM-0.477305 7.12803V7.17153H5.5227V7.12803H-0.477305ZM0.0430422 5.48294C-1.85595 8.27157 -2.91201 11.548 -2.999 14.9207L2.999 15.0754C3.05629 12.8542 3.75178 10.6965 5.00235 8.86011L0.0430422 5.48294ZM-2.99901 15.0752C-2.91223 18.4484 -1.85616 21.7252 0.0430292 24.5142L5.00236 21.137C3.75165 19.3004 3.05616 17.1424 2.99901 14.9209L-2.99901 15.0752ZM-0.477305 22.8256V22.872H5.5227V22.8256H-0.477305ZM2.5227 25.872H2.5546V19.872H2.5227V25.872ZM-0.0131299 24.4233C1.54831 27.0077 3.74267 29.1515 6.36275 30.6521L9.34474 25.4456C7.60964 24.4518 6.15642 23.0321 5.12233 21.3206L-0.0131299 24.4233ZM6.36275 30.6521C8.98284 32.1527 11.9422 32.9607 14.9613 32.9997L15.0388 27.0002C13.0396 26.9744 11.0798 26.4393 9.34474 25.4456L6.36275 30.6521ZM15.0389 32.9997C18.058 32.9607 21.0172 32.1527 23.6373 30.6521L20.6553 25.4456C18.9202 26.4393 16.9605 26.9744 14.9612 27.0002L15.0389 32.9997ZM23.6373 30.6521C26.2574 29.1514 28.4517 27.0077 30.0131 24.4234L24.8777 21.3206C23.8436 23.0321 22.3904 24.4518 20.6553 25.4456L23.6373 30.6521ZM27.4454 25.872H27.4744V19.872H27.4454V25.872ZM30.4744 22.872V22.8285H24.4744V22.872H30.4744ZM29.9535 24.518C31.8545 21.7286 32.9118 18.4507 32.999 15.0762L27.001 14.9212C26.9436 17.1435 26.2473 19.3021 24.9954 21.139L29.9535 24.518ZM32.999 14.9212C32.9118 11.5467 31.8545 8.26877 29.9535 5.47938L24.9954 8.85837C26.2473 10.6953 26.9436 12.8539 27.001 15.0762L32.999 14.9212ZM30.4744 7.16888V7.12803H24.4744V7.16888H30.4744ZM27.4744 4.12803H27.4454V10.128H27.4744V4.12803ZM30.0131 5.57659C28.4516 2.9923 26.2573 0.848628 23.6373 -0.651982L20.6553 4.55452C22.3904 5.54829 23.8436 6.96794 24.8777 8.67947L30.0131 5.57659ZM23.6373 -0.651982C21.0172 -2.15259 18.058 -2.96062 15.0389 -2.99975L14.9612 2.99975C16.9605 3.02566 18.9202 3.56075 20.6553 4.55452L23.6373 -0.651982ZM11.2574 1.63561V7.12803H17.2574V1.63561H11.2574ZM14.2574 4.12803H9.0702V10.128H14.2574V4.12803ZM11.9661 7.91153C12.3727 6.40866 12.8637 4.92994 13.4369 3.4824L7.8583 1.27352C7.20207 2.93085 6.63985 4.62387 6.17432 6.34453L11.9661 7.91153ZM11.6629 5.20094C12.5562 4.87965 13.4909 4.68745 14.4385 4.63014L14.0764 -1.35892C12.5591 -1.26717 11.0627 -0.95944 9.63234 -0.445025L11.6629 5.20094ZM15.5601 4.63009C16.4742 4.68564 17.3763 4.86651 18.2411 5.16763L20.214 -0.498714C18.8302 -0.980543 17.3867 -1.26997 15.9241 -1.35886L15.5601 4.63009ZM16.4394 3.44183C17.0195 4.90243 17.5161 6.39485 17.9267 7.91186L23.7183 6.34419C23.2482 4.60759 22.6798 2.89913 22.0157 1.22709L16.4394 3.44183ZM20.8225 4.12803H15.7423V10.128H20.8225V4.12803ZM18.7423 7.12791L18.7421 1.63549L12.7421 1.63573L12.7423 7.12815L18.7423 7.12791ZM19.6871 5.78683C21.102 6.54278 22.3288 7.60714 23.2769 8.90123L28.1169 5.35526C26.6374 3.33573 24.7227 1.67464 22.5147 0.494854L19.6871 5.78683ZM25.6969 4.12825H22.3767V10.1282H25.6969V4.12825ZM25.2809 6.37603C24.9039 4.92053 24.421 3.48873 23.9194 2.11315L18.2824 4.16854C18.7541 5.46204 19.1645 6.69094 19.4726 7.88047L25.2809 6.37603ZM5.94598 2.18288C5.45568 3.53276 4.97964 4.94233 4.6087 6.37645L10.4175 7.87894C10.7193 6.7122 11.1224 5.50611 11.5855 4.23128L5.94598 2.18288ZM7.51311 4.1277H4.30311V10.1277H7.51311V4.1277ZM6.72404 8.89945C7.64876 7.63591 8.83896 6.59027 10.211 5.83601L7.3205 0.57815C5.18062 1.75453 3.32436 3.38534 1.88218 5.35594L6.72404 8.89945ZM3.30273 11.6128H7.15919V5.61283H3.30273V11.6128ZM4.22865 7.971C3.78527 9.99543 3.5156 12.054 3.42258 14.1244L9.41654 14.3937C9.49422 12.6646 9.71944 10.9454 10.0897 9.25466L4.22865 7.971ZM6.41956 11.259H1.63547V17.259H6.41956V11.259ZM4.6297 14.445C4.72485 12.9125 5.16515 11.4215 5.91766 10.0833L0.6878 7.14241C-0.507956 9.26888 -1.20758 11.6382 -1.35876 14.0731L4.6297 14.445ZM8.66418 11.6128H14.2574V5.61283H8.66418V11.6128ZM11.2574 8.61283V14.259H17.2574V8.61283H11.2574ZM14.2574 11.259H7.88712V17.259H14.2574V11.259ZM10.8838 14.3996C10.9646 12.6777 11.2001 10.9667 11.5874 9.28703L5.74092 7.93863C5.27266 9.96891 4.98801 12.0372 4.89041 14.1185L10.8838 14.3996ZM15.7423 11.6128H21.2289V5.61283H15.7423V11.6128ZM18.3056 9.28712C18.693 10.9667 18.9285 12.6777 19.0092 14.3995L25.0026 14.1186C24.9051 12.0372 24.6204 9.96887 24.1521 7.93854L18.3056 9.28712ZM22.0059 11.259H15.7423V17.259H22.0059V11.259ZM18.7423 14.259V8.61283H12.7423V14.259H18.7423ZM22.7302 11.6128H26.6969V5.61283H22.7302V11.6128ZM24.0819 10.0831C24.8343 11.4214 25.2746 12.9124 25.3696 14.4448L31.3581 14.0733C31.207 11.6383 30.5076 9.26907 29.312 7.14256L24.0819 10.0831ZM28.3639 11.259H23.4699V17.259H28.3639V11.259ZM26.4669 14.1244C26.3739 12.0541 26.1043 9.99559 25.6611 7.9712L19.7999 9.25446C20.1701 10.9452 20.3953 12.6646 20.473 14.3937L26.4669 14.1244ZM22.7305 5.61283H22.7302V11.6128H22.7305V5.61283ZM1.63547 18.7437H6.3934V12.7437H1.63547V18.7437ZM3.39343 15.7572C3.40274 17.8382 3.6054 19.9139 3.99878 21.9575L9.89061 20.8233C9.56748 19.1447 9.40102 17.4397 9.39337 15.7303L3.39343 15.7572ZM6.9447 18.3904H3.30273V24.3904H6.9447V18.3904ZM5.91769 19.92C5.16514 18.5816 4.72483 17.0904 4.62971 15.5579L-1.35877 15.9296C-1.20762 18.3647 -0.508011 20.7341 0.687768 22.8607L5.91769 19.92ZM7.85809 18.7437H14.2574V12.7437H7.85809V18.7437ZM11.2574 15.7437V21.3904H17.2574V15.7437H11.2574ZM14.2574 18.3904H8.44383V24.3904H14.2574V18.3904ZM11.3829 20.7886C11.0419 19.1236 10.8661 17.429 10.8581 15.7294L4.85812 15.758C4.86809 17.8523 5.0847 19.9404 5.50481 21.9922L11.3829 20.7886ZM15.7423 18.7437H22.0347V12.7437H15.7423V18.7437ZM19.0348 15.7296C19.0267 17.4289 18.851 19.1232 18.51 20.788L24.388 21.9919C24.8082 19.9402 25.0248 17.8521 25.0347 15.7579L19.0348 15.7296ZM21.449 18.3899H15.7423V24.3899H21.449V18.3899ZM18.7423 21.3899V15.7437H12.7423V21.3899H18.7423ZM23.496 18.7437H28.3643V12.7437H23.496V18.7437ZM25.3701 15.5579C25.275 17.0903 24.8348 18.5814 24.0823 19.9197L29.3124 22.8602C30.508 20.7337 31.2074 18.3644 31.3586 15.9295L25.3701 15.5579ZM26.6974 18.3899H22.948V24.3899H26.6974V18.3899ZM25.8942 21.9555C26.2865 19.9119 26.488 17.8362 26.496 15.7552L20.496 15.7322C20.4895 17.4412 20.324 19.146 20.0018 20.8243L25.8942 21.9555ZM4.30311 25.8746H7.27267V19.8746H4.30311V25.8746ZM4.35645 23.5786C4.68601 24.9438 5.09235 26.2893 5.57353 27.6087L11.2104 25.553C10.8065 24.4456 10.4655 23.3164 10.1889 22.1706L4.35645 23.5786ZM9.92069 23.9996C8.66995 23.2588 7.58197 22.2727 6.72224 21.1004L1.88398 24.6488C3.22235 26.4737 4.91606 28.0089 6.8632 29.1621L9.92069 23.9996ZM8.78605 25.8746H14.2574V19.8746H8.78605V25.8746ZM11.2574 22.8746V28.3671H17.2574V22.8746H11.2574ZM14.4369 25.3725C13.4091 25.3109 12.3971 25.0905 11.4368 24.7191L9.27224 30.315C10.8105 30.91 12.4317 31.2631 14.078 31.3618L14.4369 25.3725ZM13.1215 26.3579C12.5444 24.9803 12.0658 23.5635 11.6891 22.1181L5.88301 23.6312C6.3312 25.351 6.90079 27.0369 7.58748 28.6762L13.1215 26.3579ZM15.7423 25.8746H21.1068V19.8746H15.7423V25.8746ZM18.2039 22.1174C17.8229 23.5778 17.3379 25.0091 16.7525 26.4003L22.2828 28.7274C22.9793 27.0723 23.5563 25.3694 24.0096 23.6319L18.2039 22.1174ZM18.4637 24.7551C17.5325 25.1045 16.5542 25.3126 15.5614 25.3726L15.9231 31.3617C17.5132 31.2657 19.0801 30.9323 20.5716 30.3726L18.4637 24.7551ZM18.7422 28.3672L18.7423 22.8747L12.7423 22.8746L12.7422 28.3671L18.7422 28.3672ZM22.6198 25.8746H25.6963V19.8746H22.6198V25.8746ZM23.2746 21.104C22.3917 22.3116 21.2667 23.3217 19.9715 24.0699L22.9726 29.2654C24.9903 28.0998 26.7428 26.5263 28.1181 24.6452L23.2746 21.104ZM24.2884 27.7012C24.7837 26.3516 25.2006 24.9744 25.5371 23.5767L19.7037 22.1726C19.4213 23.3456 19.0714 24.5014 18.6557 25.634L24.2884 27.7012ZM22.6204 19.8746H22.6198V25.8746H22.6204V19.8746Z" fill="white" mask="url(#path-1-inside-1)"/>
</svg>
