<svg id="Layer_1" data-name="Layer 1" xmlns="http://www.w3.org/2000/svg" width="32" height="32" viewBox="0 0 32 32"><title>website</title><path d="M15.9727,2.3851A13.3745,13.3745,0,0,0,4.6989,8.8415H4.67v.0394A13.1986,13.1986,0,0,0,2.3848,15.97,13.1988,13.1988,0,0,0,4.67,23.06v.042h.0289a13.374,13.374,0,0,0,11.2738,6.4564,13.3741,13.3741,0,0,0,11.2737-6.4564h.0263v-.0394a13.1976,13.1976,0,0,0,2.2878-7.092,13.1979,13.1979,0,0,0-2.2878-7.0921V8.8415h-.0263A13.3746,13.3746,0,0,0,15.9727,2.3851ZM15.3,3.8666V8.8415H10.6011A40.2155,40.2155,0,0,1,12.03,4.539,11.7608,11.7608,0,0,1,15.3,3.8666Zm1.3449,0a11.775,11.775,0,0,1,3.1573.633A40.2577,40.2577,0,0,1,21.247,8.8415H16.6451ZM21.4992,5.23a12.412,12.412,0,0,1,4.1633,3.6117H22.6549C22.3446,7.6438,21.94,6.4388,21.4992,5.23ZM10.3253,5.29c-.4318,1.1887-.83,2.3733-1.1347,3.5512H6.2828A12.4294,12.4294,0,0,1,10.3253,5.29ZM5.3766,10.1864H8.87a30.2482,30.2482,0,0,0-.67,5.1142H3.8663A11.9436,11.9436,0,0,1,5.3766,10.1864Zm4.8567,0H15.3v5.1142H9.5294A28.7465,28.7465,0,0,1,10.2333,10.1864Zm6.4118,0h4.97a28.7374,28.7374,0,0,1,.7039,5.1142H16.6451Zm6.33,0h3.5933a11.9437,11.9437,0,0,1,1.51,5.1142H23.6452A30.2584,30.2584,0,0,0,22.9754,10.1864ZM3.8663,16.6454h4.31A27.7113,27.7113,0,0,0,8.6757,21.76H5.3766A11.9445,11.9445,0,0,1,3.8663,16.6454Zm5.6368,0H15.3V21.76H10.0337A26.1145,26.1145,0,0,1,9.5031,16.6454Zm7.142,0h5.7a26.0992,26.0992,0,0,1-.5306,5.1142H16.6451Zm7.0237,0h4.41a11.9446,11.9446,0,0,1-1.51,5.1142H23.1724A27.6886,27.6886,0,0,0,23.6688,16.6454Zm-17.386,6.459h2.69a31.0939,31.0939,0,0,0,1.0139,3.357A12.4794,12.4794,0,0,1,6.2828,23.1044Zm4.0609,0H15.3v4.975a11.7487,11.7487,0,0,1-3.5355-.77A31.3327,31.3327,0,0,1,10.3437,23.1044Zm6.3014,0h4.8594a31.3615,31.3615,0,0,1-1.4395,4.2474,11.7524,11.7524,0,0,1-3.42.7276Zm6.23,0h2.7869A12.4617,12.4617,0,0,1,21.8354,26.54,31.084,31.084,0,0,0,22.8756,23.1044Z"/></svg>