<?xml version="1.0" encoding="utf-8"?>
<!-- Generator: Adobe Illustrator 24.0.1, SVG Export Plug-In . SVG Version: 6.00 Build 0)  -->
<svg version="1.1" id="Layer_1" xmlns="http://www.w3.org/2000/svg" xmlns:xlink="http://www.w3.org/1999/xlink" x="0px" y="0px"
	 viewBox="0 0 767.9 1280.6" style="enable-background:new 0 0 767.9 1280.6;" xml:space="preserve">
<style type="text/css">
	.st0{fill:url(#SVGID_1_);}
	.st1{fill:url(#SVGID_2_);}
	.st2{fill:url(#SVGID_3_);}
	.st3{fill:url(#SVGID_4_);}
	.st4{fill:url(#SVGID_5_);}
	.st5{fill:url(#SVGID_6_);}
	.st6{fill:url(#SVGID_7_);}
	.st7{fill:url(#SVGID_8_);}
	.st8{fill:#332F2E;}
	.st9{fill:url(#SVGID_9_);}
	.st10{fill:url(#SVGID_10_);}
	.st11{fill:url(#SVGID_11_);}
	.st12{fill:url(#SVGID_12_);}
	.st13{fill:#037F8C;}
	.st14{fill:url(#SVGID_13_);}
	.st15{fill:url(#SVGID_14_);}
	.st16{fill:url(#SVGID_15_);}
	.st17{fill:url(#SVGID_16_);}
	.st18{fill:url(#SVGID_17_);}
	.st19{opacity:0.98;fill:url(#SVGID_18_);enable-background:new    ;}
	.st20{opacity:0.98;fill:#262626;enable-background:new    ;}
	.st21{fill:none;stroke:#332F2E;stroke-width:0.25;stroke-miterlimit:10;}
	.st22{opacity:0.4;fill:none;stroke:#332F2E;stroke-width:0.75;stroke-miterlimit:10;enable-background:new    ;}
	.st23{fill:none;stroke:#332E33;stroke-width:0.25;stroke-miterlimit:10;}
	.st24{opacity:0.75;fill:none;stroke:#332F2E;stroke-width:0.25;stroke-miterlimit:10;enable-background:new    ;}
	.st25{fill:#04BFBF;}
	.st26{fill:#047F8C;}
	.st27{fill:#05E6E6;}
	.st28{fill:#04B8CC;}
	.st29{fill:#039999;}
	.st30{fill:#035C66;}
	.st31{fill:#05A1B3;}
	.st32{fill:#07DBF2;}
	.st33{fill:#025959;}
	.st34{fill:#013A40;}
	.st35{fill:url(#SVGID_19_);}
	.st36{opacity:0.98;fill:url(#SVGID_20_);enable-background:new    ;}
	.st37{fill:url(#SVGID_21_);}
	.st38{fill:url(#SVGID_22_);stroke:#332E33;stroke-width:0.8;stroke-miterlimit:10;}
	.st39{opacity:0.98;fill:url(#SVGID_23_);enable-background:new    ;}
	.st40{fill:none;stroke:#453634;stroke-miterlimit:10;}
	.st41{fill:url(#SVGID_24_);stroke:#453634;stroke-miterlimit:10;}
	.st42{fill:url(#SVGID_25_);}
	.st43{fill:url(#SVGID_26_);}
	.st44{fill:url(#SVGID_27_);}
	.st45{fill:url(#SVGID_28_);}
	.st46{fill:url(#SVGID_29_);}
	.st47{fill:url(#SVGID_30_);}
	.st48{fill:url(#SVGID_31_);}
	.st49{fill:url(#SVGID_32_);}
	.st50{fill:url(#SVGID_33_);}
	.st51{fill:url(#SVGID_34_);}
	.st52{fill:url(#SVGID_35_);}
	.st53{fill:url(#SVGID_36_);}
	.st54{fill:url(#SVGID_37_);}
	.st55{fill:url(#SVGID_38_);}
	.st56{fill:url(#SVGID_39_);}
	.st57{fill:url(#SVGID_40_);}
	.st58{fill:url(#SVGID_41_);}
	.st59{fill:#F2BA5A;}
	.st60{fill:url(#SVGID_42_);}
	.st61{fill:url(#SVGID_43_);}
	.st62{fill:#0F0B39;}
	.st63{fill:#453634;}
	.st64{fill:url(#SVGID_44_);}
	.st65{fill:url(#SVGID_45_);}
	.st66{fill:url(#SVGID_46_);}
	.st67{fill:#402C14;}
	.st68{fill:url(#SVGID_47_);}
	.st69{fill:url(#SVGID_48_);}
	.st70{fill:url(#SVGID_49_);}
	.st71{fill:#FFFFFF;}
	.st72{fill:url(#SVGID_50_);}
	.st73{fill:url(#SVGID_51_);}
	.st74{fill:none;stroke:#FFFFFF;stroke-miterlimit:10;}
	.st75{fill:none;stroke:#FFFFFF;stroke-width:2;stroke-miterlimit:10;}
	.st76{fill:none;stroke:#FFFFFF;stroke-width:2;stroke-linecap:round;stroke-linejoin:round;}
	.st77{fill:#ECECEC;stroke:#FFFFFF;stroke-width:0.5;stroke-miterlimit:10;}
	.st78{fill:#FFFFFF;stroke:#FFFFFF;stroke-width:0.25;stroke-miterlimit:10;}
	.st79{fill:#ECECEC;stroke:#FFFFFF;stroke-width:0.25;stroke-miterlimit:10;}
	.st80{fill:#FFFFFF;stroke:#FFFFFF;stroke-width:0.75;stroke-miterlimit:10;}
	.st81{fill:#ECECEC;}
	.st82{fill:#C8C8C8;}
	.st83{opacity:0.74;fill:#375A64;stroke:#FFFFFF;stroke-width:0.25;stroke-miterlimit:10;}
	.st84{fill:#375A64;stroke:#FFFFFF;stroke-width:0.25;stroke-miterlimit:10;}
	.st85{fill:#1A2E35;stroke:#FFFFFF;stroke-width:0.25;stroke-miterlimit:10;}
	.st86{fill:#FFC800;stroke:#FFFFFF;stroke-width:0.25;stroke-miterlimit:10;}
</style>
<title>app-dev-card</title>
<g>
	<g>
		<g id="Layer_1_1_">
			
				<image style="overflow:visible;enable-background:new    ;" width="483" height="580" xlink:href="E212B8960A3AB429.png"  transform="matrix(1.7906 0 0 1.8059 -48.2805 65.2948)">
			</image>
			
				<linearGradient id="SVGID_1_" gradientUnits="userSpaceOnUse" x1="366.9784" y1="1857.1492" x2="402.0446" y2="539.3394" gradientTransform="matrix(1 0 0 -1 0 1848.0873)">
				<stop  offset="0" style="stop-color:#453937"/>
				<stop  offset="0.2337" style="stop-color:#A37454"/>
				<stop  offset="0.4162" style="stop-color:#CFC866"/>
				<stop  offset="0.4935" style="stop-color:#E3E2AE"/>
				<stop  offset="0.5763" style="stop-color:#CFC866"/>
				<stop  offset="0.7961" style="stop-color:#99624F"/>
				<stop  offset="1" style="stop-color:#453937"/>
			</linearGradient>
			<path class="st0" d="M768.5,19.2v1242.3c0,10.6-8.5,19.2-19,19.2c0,0,0,0,0,0H19c-10.5,0-19-8.6-19-19.1c0,0,0,0,0,0V19.2
				c0-3.5,1-7,2.8-10L3,9.3c3.1,6.8,6.9,13.3,11.2,19.4c-1.7,2.9-2.6,6.3-2.6,9.7v1203.8c0,10.6,8.5,19.2,19,19.2H738
				c10.5,0,19-8.6,19-19.2V38.4c0-10.6-8.5-19.2-19-19.2H447c-1.5-4.1-0.6-8.7,2.2-12c2.7-3.4,8-7,12.4-7.2h287.9
				C760,0,768.5,8.6,768.5,19.2C768.5,19.2,768.5,19.2,768.5,19.2z"/>
			
				<radialGradient id="SVGID_2_" cx="445.7388" cy="1167.9315" r="688.3632" gradientTransform="matrix(1.0546 0 0 -1.0636 -44.0873 1882.5737)" gradientUnits="userSpaceOnUse">
				<stop  offset="0" style="stop-color:#453937"/>
				<stop  offset="0.2337" style="stop-color:#A37454"/>
				<stop  offset="0.4162" style="stop-color:#CFC866"/>
				<stop  offset="0.4935" style="stop-color:#E3E2AE"/>
				<stop  offset="0.5763" style="stop-color:#CFC866"/>
				<stop  offset="0.7961" style="stop-color:#99624F"/>
				<stop  offset="1" style="stop-color:#453937"/>
			</radialGradient>
			<path class="st1" d="M738,19.3H30.5c-4.4,0-8.6,1.5-12,4.3c-4.4,3.6-7,9.1-7,14.8v1203.8c0,10.6,8.5,19.2,19,19.2H738
				c10.5,0,19-8.6,19-19.2V38.4C757,27.9,748.5,19.3,738,19.3L738,19.3z M732.3,1252H36.2c-10.5,0-19-8.6-19-19.1c0,0,0,0,0,0V47.8
				c0-10.6,8.5-19.2,19-19.2c0,0,0,0,0,0h318.7c38.8-0.3,79.1-0.2,109.7,0h267.8c10.5,0,19,8.6,19,19.1c0,0,0,0,0,0v1185
				C751.3,1243.4,742.8,1252,732.3,1252C732.4,1252,732.3,1252,732.3,1252z"/>
			
				<image style="overflow:visible;enable-background:new    ;" width="483" height="227" xlink:href="E212B8960A3AB42A.png"  transform="matrix(1.7906 0 0 1.8059 -48.2805 908.6673)">
			</image>
			
				<image style="overflow:visible;enable-background:new    ;" width="483" height="270" xlink:href="E212B8960A3AB42B.png"  transform="matrix(1.7906 0 0 1.8059 -48.2805 791.2814)">
			</image>
			
				<image style="overflow:visible;enable-background:new    ;" width="250" height="241" xlink:href="E212B8960A3AB43E.png"  transform="matrix(1.7906 0 0 1.8059 368.9219 758.7745)">
			</image>
			
				<linearGradient id="SVGID_3_" gradientUnits="userSpaceOnUse" x1="640.8388" y1="943.0489" x2="751.3335" y2="943.0489" gradientTransform="matrix(1 0 0 -1 0 1848.0873)">
				<stop  offset="0" style="stop-color:#453937"/>
				<stop  offset="0.2337" style="stop-color:#A37454"/>
				<stop  offset="0.4162" style="stop-color:#CFC866"/>
				<stop  offset="0.4935" style="stop-color:#E3E2AE"/>
				<stop  offset="0.5763" style="stop-color:#CFC866"/>
				<stop  offset="0.7961" style="stop-color:#99624F"/>
				<stop  offset="1" style="stop-color:#453937"/>
			</linearGradient>
			<path class="st2" d="M751.3,817.5v7.7c0,65-40.2,124.1-104.1,167.4c-1.2-4.1-3.4-7.9-6.4-10.9l0.2-0.2
				C708.5,939.7,751.3,881.7,751.3,817.5z"/>
			
				<linearGradient id="SVGID_4_" gradientUnits="userSpaceOnUse" x1="17.1841" y1="1682.3528" x2="751.3335" y2="1682.3528" gradientTransform="matrix(1 0 0 -1 0 1848.0873)">
				<stop  offset="1.280000e-02" style="stop-color:#4F473B"/>
				<stop  offset="0.1882" style="stop-color:#805828"/>
				<stop  offset="0.253" style="stop-color:#A38140"/>
				<stop  offset="0.2811" style="stop-color:#A36840"/>
				<stop  offset="0.3222" style="stop-color:#805828"/>
				<stop  offset="0.489" style="stop-color:#4F413B"/>
				<stop  offset="0.6922" style="stop-color:#453634"/>
				<stop  offset="0.887" style="stop-color:#332E33"/>
				<stop  offset="1" style="stop-color:#262626"/>
			</linearGradient>
			<path class="st3" d="M751.3,57.8V131c0,0-377-0.5-395.2,0c0,0-137.7-3.5-199.6,15.7c-62,19.1-120.8,64.4-139.3,127v-22.2h0.7
				c18.5-62.6,77.7-103.6,138.6-126c6.1-2.3,15.8-4,27.8-5.4c44.8-5.2,121-5.2,158.8-4.8c13.9,0.2,22.5,0.3,22.5,0.3
				C516.5,117.5,667.3,131,751.3,57.8z"/>
			
				<radialGradient id="SVGID_5_" cx="725.099" cy="613.1716" r="12.6223" gradientTransform="matrix(1.0546 0 0 -1.0636 -44.0873 1882.5737)" gradientUnits="userSpaceOnUse">
				<stop  offset="5.640000e-02" style="stop-color:#4F413B"/>
				<stop  offset="0.2337" style="stop-color:#805828"/>
				<stop  offset="0.4162" style="stop-color:#A36840"/>
				<stop  offset="0.4935" style="stop-color:#A38140"/>
				<stop  offset="0.5763" style="stop-color:#A36840"/>
				<stop  offset="0.7961" style="stop-color:#805828"/>
				<stop  offset="0.9823" style="stop-color:#453634"/>
			</radialGradient>
			<path class="st4" d="M729.9,1238.3c0.1,0.1,0.1,0.1,0.1,0.2c1.3,1.9,1.9,4.2,1.6,6.5c0,0.2-0.1,0.3-0.2,0.4
				c-0.1,0.1-0.3,0.2-0.5,0.1c-0.6,0-1.2-0.3-1.6-0.7c-0.6-0.5-1.2-1.2-1.6-1.9c-0.4-0.7-0.9-1.4-1.3-2c-1.4-2.1-2.7-4.2-4-6.3
				c-1.1-1.6-1.9-3.5-3.9-4c-2.3-0.6-4.2-0.2-6.2-1.8c-3.3-2.6-3.9-7.4-1.4-10.8s7.4-4,10.7-1.4c1.9,1.5,3,3.7,3,6.1
				c-0.2,1.2-0.5,2.4-0.9,3.6c-0.2,1.4,0.8,2.5,1.5,3.6C726.8,1232.8,728.4,1235.6,729.9,1238.3z"/>
			
				<radialGradient id="SVGID_6_" cx="654.9382" cy="664.2258" r="212.16" gradientTransform="matrix(1.0546 0 0 -1.0636 -44.0873 1882.5737)" gradientUnits="userSpaceOnUse">
				<stop  offset="5.640000e-02" style="stop-color:#4F413B"/>
				<stop  offset="0.2337" style="stop-color:#805828"/>
				<stop  offset="0.4162" style="stop-color:#A36840"/>
				<stop  offset="0.4935" style="stop-color:#A38140"/>
				<stop  offset="0.5763" style="stop-color:#A36840"/>
				<stop  offset="0.7961" style="stop-color:#805828"/>
				<stop  offset="0.9823" style="stop-color:#453634"/>
			</radialGradient>
			<path class="st5" d="M720.8,1152.5c-4,5.3-8.1,10.4-12.4,15.3c-11.1,12.7-23.3,24.3-36.5,34.7c-5.2,4.1-10.5,7.9-15.9,11.6
				c-24.9,16.7-52.1,29.4-80.8,37.9h157.2c10.5,0,19-8.6,19-19.1c0,0,0,0,0,0v-132.7C743.2,1118.7,732.9,1136.3,720.8,1152.5z
				 M731.7,1245c0,0.2-0.1,0.3-0.2,0.4c-0.1,0.1-0.3,0.2-0.5,0.1c-0.6,0-1.2-0.3-1.6-0.7c-0.6-0.5-1.2-1.2-1.6-1.9
				c-0.4-0.7-0.9-1.4-1.3-2c-1.4-2.1-2.7-4.2-4-6.3c-1.1-1.6-1.9-3.5-3.9-4c-2.3-0.6-4.2-0.2-6.2-1.8c-3.3-2.6-3.9-7.4-1.4-10.8
				c2.6-3.4,7.4-4,10.7-1.4c1.9,1.5,3,3.7,3,6.1c-0.2,1.2-0.5,2.4-0.9,3.6c-0.2,1.4,0.8,2.5,1.5,3.6c1.6,2.7,3.2,5.5,4.8,8.2
				c0.1,0.1,0.1,0.1,0.1,0.2C731.4,1240.4,732,1242.7,731.7,1245z"/>
			
				<linearGradient id="SVGID_7_" gradientUnits="userSpaceOnUse" x1="501.6621" y1="566.1508" x2="796.6564" y2="782.3913" gradientTransform="matrix(1 0 0 -1 0 1848.0873)">
				<stop  offset="0" style="stop-color:#453937"/>
				<stop  offset="0.2337" style="stop-color:#A37454"/>
				<stop  offset="0.4162" style="stop-color:#CFC866"/>
				<stop  offset="0.4935" style="stop-color:#E3E2AE"/>
				<stop  offset="0.5763" style="stop-color:#CFC866"/>
				<stop  offset="0.7961" style="stop-color:#99624F"/>
				<stop  offset="1" style="stop-color:#453937"/>
			</linearGradient>
			<path class="st6" d="M692.6,1152.3c-2,2.3-4.1,4.6-6.1,6.9h0c-6.5,7-13.2,13.7-20.3,20.1c-3,2.7-6,5.3-9.1,7.8
				c-37.7,30.5-81.4,52.6-128.2,64.9h46.3c28.7-8.4,55.9-21.2,80.8-37.9c5.5-3.7,10.8-7.5,15.9-11.6c13.2-10.4,25.5-22,36.5-34.7
				c4.3-4.9,8.4-10,12.4-15.3c12.1-16.2,22.4-33.8,30.5-52.4v-46.8C737.7,1089.6,717.8,1123.1,692.6,1152.3z"/>
			
				<linearGradient id="SVGID_8_" gradientUnits="userSpaceOnUse" x1="598.5696" y1="848.5977" x2="648.2252" y2="848.5977" gradientTransform="matrix(1 0 0 -1 0 1848.0873)">
				<stop  offset="0" style="stop-color:#805828"/>
				<stop  offset="0.2784" style="stop-color:#F2BA5A"/>
				<stop  offset="0.4236" style="stop-color:#E6D88C"/>
				<stop  offset="0.4935" style="stop-color:#FDFCB3"/>
				<stop  offset="0.5428" style="stop-color:#E3DBA1"/>
				<stop  offset="0.7514" style="stop-color:#F1BD61"/>
				<stop  offset="0.878" style="stop-color:#F2BA5A"/>
				<stop  offset="1" style="stop-color:#805828"/>
			</linearGradient>
			<path class="st7" d="M647.3,992.6c3.8,13.3-3.8,27.2-17,31c-13.2,3.8-26.9-3.9-30.7-17.1c-3.8-13.3,3.8-27.2,17-31
				c8.6-2.5,17.9-0.1,24.3,6.2C643.9,984.7,646.1,988.4,647.3,992.6z M641,999.5c-0.1-9.8-8.1-17.6-17.9-17.5
				c-9.7,0.1-17.5,8.2-17.4,18c0.1,9.7,8,17.5,17.6,17.5C633.2,1017.4,641.1,1009.4,641,999.5C641,999.5,641,999.5,641,999.5
				L641,999.5z"/>
			<ellipse class="st8" cx="623.4" cy="999.5" rx="17.6" ry="18"/>
			
				<linearGradient id="SVGID_9_" gradientUnits="userSpaceOnUse" x1="574.8627" y1="835.8398" x2="582.5568" y2="814.2922" gradientTransform="matrix(1 0 0 -1 0 1848.0873)">
				<stop  offset="7.680000e-02" style="stop-color:#453937"/>
				<stop  offset="0.3559" style="stop-color:#A37454"/>
				<stop  offset="0.5056" style="stop-color:#CC8D3F"/>
				<stop  offset="0.707" style="stop-color:#99624F"/>
				<stop  offset="1" style="stop-color:#453937"/>
			</linearGradient>
			<path class="st9" d="M599,1003.8c0.8,4.9,3.1,9.5,6.6,13.1c-16.1,8-32.6,15-49.5,20.9c-0.9-5.4-3.1-10.5-6.4-14.9l0.2-0.2
				C566.5,1017.4,583,1011.1,599,1003.8z"/>
			
				<linearGradient id="SVGID_10_" gradientUnits="userSpaceOnUse" x1="487.8412" y1="804.2897" x2="556.5784" y2="804.2897" gradientTransform="matrix(1 0 0 -1 0 1848.0873)">
				<stop  offset="0" style="stop-color:#805828"/>
				<stop  offset="0.2784" style="stop-color:#F2BA5A"/>
				<stop  offset="0.4236" style="stop-color:#E6D88C"/>
				<stop  offset="0.4935" style="stop-color:#FDFCB3"/>
				<stop  offset="0.5428" style="stop-color:#E3DBA1"/>
				<stop  offset="0.7514" style="stop-color:#F1BD61"/>
				<stop  offset="0.878" style="stop-color:#F2BA5A"/>
				<stop  offset="1" style="stop-color:#805828"/>
			</linearGradient>
			<path class="st10" d="M556,1037.8c0.4,2,0.5,4,0.5,6c0,19.1-15.4,34.7-34.4,34.7c-19,0-34.4-15.5-34.4-34.6c0,0,0,0,0,0
				c0-1.9,0.2-3.7,0.5-5.6c3.1-18.9,20.7-31.7,39.4-28.6C542.2,1012,553.5,1023.3,556,1037.8L556,1037.8z M549.8,1043.8
				c0-15.4-12.4-27.8-27.6-27.8c-15.2,0-27.6,12.5-27.6,27.8c0,15.4,12.4,27.8,27.6,27.8c0,0,0,0,0,0
				C537.4,1071.6,549.8,1059.1,549.8,1043.8L549.8,1043.8z"/>
			<ellipse class="st8" cx="522.2" cy="1043.8" rx="27.6" ry="27.8"/>
			
				<linearGradient id="SVGID_11_" gradientUnits="userSpaceOnUse" x1="342.9842" y1="1838.4346" x2="450.7743" y2="1838.4346" gradientTransform="matrix(1 0 0 -1 0 1848.0873)">
				<stop  offset="0" style="stop-color:#453937"/>
				<stop  offset="0.2337" style="stop-color:#A37454"/>
				<stop  offset="0.4162" style="stop-color:#CFC866"/>
				<stop  offset="0.4935" style="stop-color:#E3E2AE"/>
				<stop  offset="0.5763" style="stop-color:#CFC866"/>
				<stop  offset="0.7961" style="stop-color:#99624F"/>
				<stop  offset="1" style="stop-color:#453937"/>
			</linearGradient>
			<path class="st11" d="M338.5,0h123.1c-4.5,0.2-9.7,3.8-12.4,7.2c-2.8,3.3-3.7,7.9-2.2,12H332.5C334.7,12.3,336.4,6.9,338.5,0z"/>
			
				<linearGradient id="SVGID_12_" gradientUnits="userSpaceOnUse" x1="331.0057" y1="781.1991" x2="455.6494" y2="781.1991" gradientTransform="matrix(1 0 0 -1 0 1848.0873)">
				<stop  offset="0" style="stop-color:#805828"/>
				<stop  offset="0.2784" style="stop-color:#F2BA5A"/>
				<stop  offset="0.4236" style="stop-color:#E6D88C"/>
				<stop  offset="0.4935" style="stop-color:#FDFCB3"/>
				<stop  offset="0.5428" style="stop-color:#E3DBA1"/>
				<stop  offset="0.7514" style="stop-color:#F1BD61"/>
				<stop  offset="0.878" style="stop-color:#F2BA5A"/>
				<stop  offset="1" style="stop-color:#805828"/>
			</linearGradient>
			<path class="st12" d="M448.5,1044.3l7.1,9.5l-62.3,109.4L331,1053.8l5.7-7.6l56.6-75.6L448.5,1044.3z M439.2,1057.3l-45.8-61.2
				l-45.8,61.2l45.8,80.4L439.2,1057.3z"/>
			<polygon class="st13" points="393.3,996.1 439.2,1057.3 393.3,1137.7 347.5,1057.3 			"/>
			
				<image style="overflow:visible;enable-background:new    ;" width="261" height="242" xlink:href="E212B8960A3AB43F.png"  transform="matrix(1.7906 0 0 1.8059 -48.2805 758.7745)">
			</image>
			
				<linearGradient id="SVGID_13_" gradientUnits="userSpaceOnUse" x1="7.2554" y1="1836.2682" x2="338.5293" y2="1836.2682" gradientTransform="matrix(1 0 0 -1 0 1848.0873)">
				<stop  offset="0" style="stop-color:#453937"/>
				<stop  offset="0.2337" style="stop-color:#A37454"/>
				<stop  offset="0.4162" style="stop-color:#CFC866"/>
				<stop  offset="0.4935" style="stop-color:#E3E2AE"/>
				<stop  offset="0.5763" style="stop-color:#CFC866"/>
				<stop  offset="0.7961" style="stop-color:#99624F"/>
				<stop  offset="1" style="stop-color:#453937"/>
			</linearGradient>
			<path class="st14" d="M19,0h319.5c-2.2,6.9-3.9,12.3-6.1,19.3H30.5c-4.4,0-8.6,1.5-12,4.3l-0.4-0.5c-3.9-6-7.4-12.2-10.5-18.6
				L7.3,4.1C10.6,1.5,14.7,0,19,0z"/>
			
				<linearGradient id="SVGID_14_" gradientUnits="userSpaceOnUse" x1="220.5309" y1="804.3162" x2="289.2679" y2="804.3162" gradientTransform="matrix(1 0 0 -1 0 1848.0873)">
				<stop  offset="0" style="stop-color:#805828"/>
				<stop  offset="0.2784" style="stop-color:#F2BA5A"/>
				<stop  offset="0.4236" style="stop-color:#E6D88C"/>
				<stop  offset="0.4935" style="stop-color:#FDFCB3"/>
				<stop  offset="0.5428" style="stop-color:#E3DBA1"/>
				<stop  offset="0.7514" style="stop-color:#F1BD61"/>
				<stop  offset="0.878" style="stop-color:#F2BA5A"/>
				<stop  offset="1" style="stop-color:#805828"/>
			</linearGradient>
			<path class="st15" d="M289.1,1040c0.1,1.3,0.2,2.5,0.2,3.8c0,19.1-15.4,34.7-34.4,34.6c-19,0-34.3-15.5-34.4-34.6
				c0-1,0-2.1,0.1-3.1c1.7-19.1,18.4-33.1,37.3-31.4C274.3,1010.7,287.3,1023.6,289.1,1040L289.1,1040z M282.5,1043.8
				c0-15.4-12.4-27.8-27.6-27.8c-15.2,0-27.6,12.5-27.6,27.8c0,15.4,12.4,27.8,27.6,27.8c0,0,0,0,0,0
				C270.1,1071.6,282.5,1059.1,282.5,1043.8L282.5,1043.8z"/>
			<ellipse class="st8" cx="254.9" cy="1043.8" rx="27.6" ry="27.8"/>
			
				<linearGradient id="SVGID_15_" gradientUnits="userSpaceOnUse" x1="194.8963" y1="811.1073" x2="205.1672" y2="835.4751" gradientTransform="matrix(1 0 0 -1 0 1848.0873)">
				<stop  offset="0.2011" style="stop-color:#453937"/>
				<stop  offset="0.3976" style="stop-color:#A37454"/>
				<stop  offset="0.4981" style="stop-color:#9A644F"/>
				<stop  offset="0.7402" style="stop-color:#4D3D39"/>
				<stop  offset="0.9106" style="stop-color:#453937"/>
			</linearGradient>
			<path class="st16" d="M225.5,1025.1l0.3,0.2c-2.9,4.6-4.7,9.9-5.2,15.4l-0.6,0c-15.7-5.1-31.1-11.2-46.2-18.1l-0.2-0.2
				c3.4-3.7,5.7-8.4,6.5-13.4l0.3,0C195.2,1015.2,210.2,1020.6,225.5,1025.1z"/>
			
				<linearGradient id="SVGID_16_" gradientUnits="userSpaceOnUse" x1="130.7909" y1="842.8246" x2="180.4343" y2="842.8246" gradientTransform="matrix(1 0 0 -1 0 1848.0873)">
				<stop  offset="0" style="stop-color:#805828"/>
				<stop  offset="0.2784" style="stop-color:#F2BA5A"/>
				<stop  offset="0.4236" style="stop-color:#E6D88C"/>
				<stop  offset="0.4935" style="stop-color:#FDFCB3"/>
				<stop  offset="0.5428" style="stop-color:#E3DBA1"/>
				<stop  offset="0.7514" style="stop-color:#F1BD61"/>
				<stop  offset="0.878" style="stop-color:#F2BA5A"/>
				<stop  offset="1" style="stop-color:#805828"/>
			</linearGradient>
			<path class="st17" d="M180.4,1005.3c0,1.2-0.1,2.5-0.3,3.7c-2,13.7-14.7,23.1-28.2,21c-12.1-1.8-21.1-12.4-21.1-24.8
				c0-1.9,0.2-3.8,0.6-5.6c3.1-13.5,16.4-21.9,29.8-18.8C172.5,983.5,180.4,993.6,180.4,1005.3z M173.9,1005.3
				c0-10.2-8.2-18.5-18.3-18.5c-10.1,0-18.3,8.3-18.3,18.5c0,10.2,8.2,18.5,18.3,18.5c0,0,0,0,0,0
				C165.7,1023.7,173.9,1015.5,173.9,1005.3z"/>
			<ellipse class="st8" cx="155.6" cy="1005.3" rx="18.3" ry="18.5"/>
			
				<linearGradient id="SVGID_17_" gradientUnits="userSpaceOnUse" x1="49.419" y1="918.4401" x2="67.2637" y2="933.5535" gradientTransform="matrix(1 0 0 -1 0 1848.0873)">
				<stop  offset="0.1564" style="stop-color:#453937"/>
				<stop  offset="0.5605" style="stop-color:#A37454"/>
				<stop  offset="0.9106" style="stop-color:#453937"/>
			</linearGradient>
			<path class="st18" d="M137.4,987.9l0.2,0.2c-3,3.2-5.2,7.2-6.1,11.6l-0.4-0.1C60.9,955.7,17.2,893.8,17.2,825.2v-7.7
				C17.2,885,63.5,945.8,137.4,987.9z"/>
			
				<image style="overflow:visible;enable-background:new    ;" width="465" height="191" xlink:href="E212B8960A3AB432.png"  transform="matrix(1.7906 0 0 1.8059 -48.2805 -37.6436)">
			</image>
			
				<radialGradient id="SVGID_18_" cx="23.9227" cy="1777.9883" r="220.7622" fx="-62.4317" fy="1720.853" gradientTransform="matrix(1.0546 0 0 -1.1679 -44.0873 2128.8003)" gradientUnits="userSpaceOnUse">
				<stop  offset="0.1592" style="stop-color:#CFC866"/>
				<stop  offset="0.1952" style="stop-color:#A37454"/>
				<stop  offset="0.2914" style="stop-color:#E3E2AE"/>
				<stop  offset="0.4525" style="stop-color:#CFC866"/>
				<stop  offset="0.7961" style="stop-color:#99624F"/>
				<stop  offset="1" style="stop-color:#453937"/>
			</radialGradient>
			<path class="st19" d="M195.3,28.7H36.2c-10.5,0-19,8.6-19,19.1c0,0,0,0,0,0v194.3c9.1-51,24-81.4,39-103.5l0.7-1.1
				c3.5-5,7-9.6,10.4-13.9c0.1-0.1,0.2-0.3,0.3-0.4c2.6-3.2,5.1-6.3,7.5-9.3c3.2-3.8,13.5-12.8,28.8-23.6c0.1-0.1,0.2-0.1,0.3-0.2
				c4.4-3.1,9.2-6.3,14.4-9.6c0.2-0.2,0.5-0.3,0.8-0.5c31.1-19.8,74.5-41.5,117.7-47c21.7-2.8,68.6-3.9,117.9-4.4L195.3,28.7z"/>
			<path class="st20" d="M18.1,23.1l0.4,0.5c-1.7,1.4-3.2,3.2-4.4,5.1C9.9,22.6,6.1,16.1,3,9.3L2.8,9.2c1.2-1.9,2.7-3.6,4.4-5
				l0.3,0.4C10.8,10.9,14.3,17.1,18.1,23.1z"/>
			<path class="st21" d="M462.7,0h286.8c10.5,0,19,8.6,19,19.1c0,0,0,0,0,0v1242.3c0,10.6-8.5,19.2-19,19.2c0,0,0,0,0,0H19
				c-10.5,0-19-8.6-19-19.1c0,0,0,0,0,0V19.2c0-3.5,1-7,2.8-10c1.2-1.9,2.7-3.6,4.4-5C10.6,1.5,14.7,0,19,0H462.7z"/>
			<path class="st21" d="M757,1232.8v9.4c0,10.6-8.5,19.2-19,19.2H30.5c-10.5,0-19-8.6-19-19.2V38.4c0-10.6,8.5-19.2,19-19.2H738
				c10.5,0,19,8.6,19,19.2L757,1232.8z"/>
			<path class="st21" d="M751.3,1232.8c0,10.6-8.5,19.2-19,19.2c0,0,0,0,0,0H36.2c-10.5,0-19-8.6-19-19.1c0,0,0,0,0,0V47.8
				c0-10.6,8.5-19.2,19-19.2c0,0,0,0,0,0h696.2c10.5,0,19,8.6,19,19.1c0,0,0,0,0,0V1232.8L751.3,1232.8z"/>
			<path class="st21" d="M686.4,1159.2c2.1-2.3,4.1-4.6,6.1-6.9c25.2-29.2,45.1-62.7,58.8-98.9c-0.3,1.5-1.4,5-1.7,6.5"/>
			<path class="st21" d="M528.8,1252c46.8-12.2,90.5-34.3,128.2-64.9c3.1-2.6,6.2-5.2,9.1-7.8c7-6.3,13.8-13,20.3-20.1"/>
			<path class="st21" d="M574.3,1252.3c0.3-0.1,0.6-0.2,0.9-0.3c28.7-8.4,55.9-21.2,80.8-37.9c5.5-3.7,10.8-7.5,15.9-11.6
				c13.2-10.4,25.5-22,36.5-34.7c4.3-4.9,8.4-10,12.4-15.3c12.1-16.2,22.4-33.8,30.5-52.4"/>
			<path class="st22" d="M671.9,1202.5c2.4,2.6,4.3,5.5,7.4,7.2c12.1,6.8,27.4,2.4,34.1-9.8c1.8-3.2,2.8-6.7,3.1-10.4
				c0.6-8.4-1.5-16.6-8.2-21.7"/>
			<path class="st21" d="M726.5,1241c-1.4-2.1-2.7-4.2-4-6.3c-1.1-1.6-1.9-3.5-3.9-4c-2.3-0.6-4.2-0.2-6.2-1.8
				c-3.3-2.6-3.9-7.4-1.4-10.8s7.4-4,10.7-1.4c1.9,1.5,3,3.7,3,6.1c-0.2,1.2-0.5,2.4-0.9,3.6c-0.2,1.4,0.8,2.5,1.5,3.6
				c1.6,2.7,3.2,5.5,4.8,8.2c0.1,0.1,0.1,0.1,0.1,0.2c1.3,1.9,1.9,4.2,1.6,6.5c0,0.2-0.1,0.3-0.2,0.4c-0.1,0.1-0.3,0.2-0.5,0.1
				c-0.6,0-1.2-0.3-1.6-0.7c-0.6-0.5-1.2-1.2-1.6-1.9C727.4,1242.4,726.9,1241.7,726.5,1241z"/>
			<path class="st21" d="M137.4,987.9C63.5,945.8,17.2,885,17.2,817.5"/>
			<path class="st21" d="M225.5,1025.1c-15.3-4.6-30.4-10-45.1-16.1"/>
			<path class="st21" d="M336.1,1045.7c-15.9-1.3-31.4-3.2-46.6-5.8"/>
			<path class="st21" d="M488.1,1038.2c-12.8,2.4-25.9,4.3-39.2,5.8"/>
			<path class="st21" d="M599.2,1003.7c-0.1,0-0.1,0.1-0.2,0.1c-16,7.3-32.4,13.6-49.2,18.9"/>
			<path class="st21" d="M751.3,817.5c0,64.2-42.8,122.2-110.3,164"/>
			<path class="st21" d="M354.2,1130.4c-0.4,0-0.7,0-1.1-0.1c-187-12.4-335.9-129.7-335.9-272.4"/>
			<path class="st21" d="M751.3,858.8c0,138.2-138.5,251.7-317,270"/>
			<path class="st21" d="M17.2,273.7c18.5-62.6,77.3-107.9,139.3-127c62-19.1,199.6-15.7,199.6-15.7c18.2-0.5,395.2,0,395.2,0"/>
			<path class="st21" d="M17.9,251.4c18.5-62.6,77.7-103.6,138.6-126c6.1-2.3,15.8-4,27.8-5.4c44.8-5.2,121-5.2,158.8-4.8
				c13.9,0.2,22.5,0.3,22.5,0.3c150.8,1.9,301.7,15.4,385.7-57.8"/>
			<path class="st23" d="M80.5,131.5c1.8-2.1,3.6-4.2,5.5-6.2c6.9-7.5,14.3-14.6,22.1-21.1c3.7-3.1,7.4-6,11.3-8.9
				c8.7-6.5,17.8-12.6,27.6-18.7c16.1-10,39.2-22.7,102.8-34.2c59.6-10.7,300.1-4,300.1-4h0.7c15.2,0,30.4-0.1,45.6-0.1
				c15.2,0,30.4-0.1,45.7-0.1c8.4,0,25.2,0.2,25.2-0.1c0-0.2,16.1-0.3,16.5,0.3c-1.8,14.3-9.5,26.2-21,34.7c-6,4.5-12.8,7.9-20,10.1
				c-3.5,1-14.6,3.5-20.6,2.3c6.4-2.2,17.8-8.2,22.5-12.9c4.7-4.8,6.2-11.5,6.2-18.1c0-10.1-8.2-10.1-8.2-10.1
				c-26.9,0-59.7-0.3-91.8-0.7c-21.9-0.2-43.5-0.5-62.4-0.6c-39.2-0.3-78.4-0.3-117.6-0.1c-19.6,0.2-52,1.4-71.5,3.3
				c-61.7,6-81.9,10.3-97.7,15.1c-0.7,0.2-1.5,0.5-2.3,0.8"/>
			<path class="st21" d="M80.9,131.2c-0.2,0.2-0.3,0.3-0.4,0.3l0,0"/>
			<path class="st21" d="M193.5,64.7c-20.7,9-61.6,31.8-73.5,39.1c-7,4.3-13.8,8.8-20.4,13.4c-5.3,3.7-15.9,11.9-18.5,13.8"/>
			<path class="st21" d="M195.6,63.8c-0.6,0.3-1.3,0.6-2,0.8"/>
			<path class="st21" d="M199,62.5c-1,0.4-2.1,0.8-3.3,1.3"/>
			<path class="st21" d="M184.3,119.4c-11.5-17.3-10.1-26.8-7.6-34.7c2.6-8.7,8.7-16,16.8-20l0.1-0.1c0.6-0.3,1.3-0.6,2-0.8
				c0.1,0,0.2-0.1,0.2-0.1"/>
			<path class="st21" d="M718,28.8l-202.2,0.4c0,0-20.8-0.3-51.2-0.5c-30.5-0.2-70.8-0.3-109.7,0c-49.3,0.4-96.2,1.6-117.9,4.4
				c-43.2,5.5-86.6,27.2-117.7,47c-0.2,0.2-0.5,0.3-0.8,0.5c-5.2,3.3-9.9,6.5-14.4,9.6c-0.1,0.1-0.2,0.1-0.3,0.2
				c-15.2,10.7-25.6,19.7-28.8,23.6c-2.5,3-5,6.1-7.5,9.3c-0.1,0.1-0.2,0.3-0.3,0.4c-3.4,4.3-6.9,8.9-10.4,13.9l-0.7,1.1
				c-15.1,22.1-29.9,52.5-39,103.5c0,0,17-46.6,27.5-64.6C51.3,166,65.4,149,74,139.1c3.6-4.1,6.2-7,7-7.9c0,0,0.1-0.1,0.1-0.1
				c0,0,0.1-0.1,0.1-0.1"/>
			<polygon class="st21" points="393.3,1137.7 347.5,1057.3 393.3,996.1 439.2,1057.3 			"/>
			<polygon class="st21" points="448.5,1044.3 455.6,1053.8 393.3,1163.2 331,1053.8 336.7,1046.2 393.3,970.6 			"/>
			<path class="st21" d="M131,999.5C60.9,955.7,17.2,893.8,17.2,825.2"/>
			<path class="st21" d="M220.1,1040.7c-15.7-5.1-31.1-11.2-46.2-18.1"/>
			<path class="st21" d="M489.6,1055.8c-5.3,1-10.7,2-16.1,2.9l-39.5,70l-40.7,72.1l-40.2-70.4l-39.4-68.8c-9.1-1.2-18.1-2.5-27-4.1
				"/>
			<path class="st21" d="M605.6,1016.9c-16.1,8-32.6,15-49.5,20.9c-0.1,0-0.2,0.1-0.3,0.1"/>
			<path class="st21" d="M751.3,825.2c0,65-40.2,124.1-104.1,167.4c-0.1,0.1-0.2,0.2-0.3,0.2"/>
			<path class="st24" d="M17.2,70.3C24,52.7,40.4,35.1,58.1,28.7"/>
			<path class="st24" d="M64.1,49.3c14.4-8.4,29.5-15.3,45.3-20.6"/>
			<path class="st24" d="M17.2,106.1c3.9-12,10.1-23.2,18.1-32.8"/>
			<path class="st24" d="M100.3,66.5L100.3,66.5c30.2-16.9,60.7-27.9,94.9-37.9"/>
			<path class="st24" d="M17.2,155c5.8-15.9,14.5-30.6,25.8-43.3"/>
			<path class="st24" d="M67.4,123.6L67.4,123.6c-9.7-9.9-9.7-25.7,0.1-35.5c9.7-9.7,25.4-9.7,35.1,0.1c0.6,0.6,1.1,1.2,1.6,1.8"/>
			<path class="st24" d="M57.2,137.8c-0.1-0.1-0.2-0.2-0.3-0.3c-7.4-6.7-12.2-15.8-13.6-25.8c-0.3-1.9-0.4-3.9-0.4-5.8
				c0-5.7,1.1-11.3,3.3-16.5c0.1-0.3,0.2-0.6,0.4-0.9"/>
			<line class="st21" x1="56.3" y1="138.7" x2="73.5" y2="138.7"/>
			<line class="st21" x1="67.8" y1="123.3" x2="86" y2="125.3"/>
			<line class="st21" x1="104.1" y1="90.5" x2="107.9" y2="104"/>
			<line class="st21" x1="119.3" y1="80" x2="119.3" y2="95.3"/>
			<ellipse class="st24" cx="57.3" cy="70.3" rx="8.6" ry="8.7"/>
			<path class="st24" d="M46.7,89.7c-0.1-0.1-0.3-0.2-0.4-0.3C40.4,86,36.4,80,35.6,73.3c-0.1-1-0.2-1.9-0.2-2.9
				c0-12.2,9.8-22.1,22-22.1c9.8,0,18.3,6.5,21.1,15.9c0,0,4.3-0.6,6.6-0.6c13.2,0,25.6,6.2,33.5,16.9"/>
			<path class="st21" d="M556,1037.8c0.4,2,0.5,4,0.5,6c0,19.1-15.4,34.7-34.4,34.7c-19,0-34.4-15.5-34.4-34.6c0,0,0,0,0,0
				c0-1.9,0.2-3.7,0.5-5.6c3.1-18.9,20.7-31.7,39.4-28.6C542.2,1012,553.5,1023.3,556,1037.8L556,1037.8z"/>
			<ellipse class="st21" cx="522.2" cy="1043.8" rx="27.6" ry="27.8"/>
			<path class="st21" d="M647.3,992.6c3.8,13.3-3.8,27.2-17,31c-13.2,3.8-26.9-3.9-30.7-17.1c-3.8-13.3,3.8-27.2,17-31
				c8.6-2.5,17.9-0.1,24.3,6.2C643.9,984.7,646.1,988.4,647.3,992.6z"/>
			<ellipse class="st21" cx="623.4" cy="999.5" rx="17.6" ry="18"/>
			<path class="st21" d="M137.6,988.1c9.4-10.1,25.1-10.5,35.1-1c5,4.7,7.8,11.3,7.8,18.2c0,1.2-0.1,2.5-0.3,3.7
				c-2,13.7-14.7,23.1-28.2,21c-12.1-1.8-21.1-12.4-21.1-24.8c0-1.9,0.2-3.8,0.6-5.6C132.4,995.3,134.5,991.3,137.6,988.1z"/>
			<ellipse class="st21" cx="155.6" cy="1005.3" rx="18.3" ry="18.5"/>
			<path class="st21" d="M289.1,1040c0.1,1.3,0.2,2.5,0.2,3.8c0,19.1-15.4,34.7-34.4,34.6c-19,0-34.3-15.5-34.4-34.6
				c0-1,0-2.1,0.1-3.1c1.7-19.1,18.4-33.1,37.3-31.4C274.3,1010.7,287.3,1023.6,289.1,1040L289.1,1040z"/>
			<ellipse class="st21" cx="254.9" cy="1043.8" rx="27.6" ry="27.8"/>
			<path class="st21" d="M338.7-0.5c-0.1,0.2-0.1,0.3-0.2,0.5c-2.2,6.9-3.9,12.3-6.1,19.3"/>
			<path class="st21" d="M462.7,0c-0.3,0-0.7,0-1.1,0c-4.5,0.2-9.7,3.8-12.4,7.2c-2.8,3.3-3.7,7.9-2.2,12"/>
			<path class="st21" d="M3,9.3c3.1,6.8,6.9,13.3,11.2,19.4c0,0.1,0.1,0.1,0.2,0.2"/>
			<path class="st21" d="M7.6,4.5c3.2,6.4,6.7,12.6,10.5,18.6"/>
			<path class="st21" d="M199.1,62.4C199.1,62.4,199.1,62.5,199.1,62.4c-8,3.7-15.8,21.5-13.2,29.8c2.6,8.3,7.7,12.5,15.9,15.3
				c8.2,2.7,33.4,1.9,42,1.9c14.7,0.1,52.5,0.9,99.3,1.4c92,1,219.2,0.7,275.6-8.8c22.1-3.7,44.4-8.9,63.6-20.5
				c19.2-11.6,33.7-30.5,36.9-52.8"/>
			<path class="st21" d="M751.3,975.4c-45.8,63.4-98.1,118.8-162.7,162.5s-140.2,72.4-218,75.2c-118.8,4.2-233.3-51.4-352.1-50"/>
			<path class="st22" d="M698.2,1229.9c-2.6,0.4-5.2,0.7-7.8,0.7c-1.8,0-3.6-0.1-5.4-0.3c-11.4-1.4-21.8-7.1-29.1-16.1"/>
			<path class="st22" d="M726.9,1240.8c-0.2,0.1-0.3,0.2-0.4,0.3c-3,1.8-6.4,2.8-9.8,2.8c-0.7,0-1.5,0-2.2-0.2
				c-7.7-0.9-14-6.4-16-13.9c0-0.1-0.1-0.3-0.1-0.4"/>
			<path class="st22" d="M720.6,1152.3l0.2,0.2c7.3,6.8,12.1,15.8,13.7,25.7c0.4,2.4,0.6,4.9,0.6,7.3c0,8.5-2.3,16.7-6.8,23.9l0,0.4
				c3.7,2.7,6.2,6.9,7,11.5c0.2,1.2,0.3,2.3,0.3,3.5c0,5.1-2,10-5.6,13.5l-0.3,0.3"/>
			<path class="st22" d="M683.9,1230.8c-8.2,7.8-17.1,14.8-26.4,21.2c-0.1,0.1-0.3,0.2-0.4,0.3"/>
			<path class="st22" d="M750.5,1157.8c-4.5,6.2-9.9,13.2-16.1,20.5c-0.1,0.1-0.2,0.3-0.3,0.4"/>
			<path class="st22" d="M714.4,1243.8c-3.1,2.9-6.4,5.6-9.8,8.2c-0.1,0-0.1,0.1-0.2,0.1"/>
			<path class="st22" d="M751.3,1196c-4.6,8.9-10,17.4-16.1,25.3c-0.1,0.1-0.2,0.3-0.3,0.4"/>
			<line class="st22" x1="655.9" y1="1214.1" x2="657" y2="1187.2"/>
			<line class="st22" x1="671.9" y1="1202.5" x2="666.1" y2="1179.3"/>
			<polyline class="st22" points="708.4,1167.9 686.4,1159.2 686.4,1159.2 			"/>
			<line class="st22" x1="720.6" y1="1152.3" x2="692.6" y2="1152.3"/>
			<polygon class="st25" points="393,1137.7 416.1,1060.3 439.2,1057.3 			"/>
			<polygon class="st26" points="439.2,1057.3 416.1,1060.3 392.3,997.6 			"/>
			<polygon class="st27" points="347.5,1057.3 369.4,1060.7 392.3,998 			"/>
			<polygon class="st28" points="392.4,997.6 369.4,1060.7 416.1,1060.3 			"/>
			<polygon class="st29" points="393,1137 416.1,1060.3 369.4,1060.7 			"/>
			<polygon class="st30" points="393,1137.7 369.4,1060.7 347.5,1057.3 			"/>
			<polygon class="st31" points="520.7,1023.2 520.2,1016 520.2,1016 501.3,1025.6 501.3,1025.6 506.7,1030.3 			"/>
			<polygon class="st32" points="508.8,1059.6 501.8,1045.4 506.7,1030.3 520.7,1023.2 535.6,1028.2 542.7,1042.3 537.7,1057.4 
				523.7,1064.5 			"/>
			<polygon class="st13" points="520.7,1023.2 535.6,1028.2 535.6,1028.2 540.3,1022.7 520.3,1016 520.7,1023.2 			"/>
			<polygon class="st27" points="542.7,1042.3 549.8,1041.8 540.3,1022.7 535.6,1028.2 			"/>
			<polygon class="st33" points="501.8,1045.4 494.6,1045.9 501.3,1025.6 506.7,1030.3 			"/>
			<polygon class="st27" points="523.7,1064.4 524.2,1071.6 524.2,1071.6 543.2,1062 543.2,1061.9 537.7,1057.3 			"/>
			<polygon class="st25" points="523.7,1064.4 508.8,1059.4 508.8,1059.4 504.1,1064.9 524.2,1071.6 523.8,1064.4 			"/>
			<polygon class="st34" points="501.8,1045.2 494.6,1045.8 504.1,1064.9 508.8,1059.4 			"/>
			<polygon class="st25" points="542.7,1042.2 549.8,1041.7 543.2,1062 537.7,1057.3 			"/>
			<polygon class="st31" points="622.4,986.1 622.1,981.4 622.1,981.4 609.7,987.7 609.7,987.7 613.2,990.8 			"/>
			<polygon class="st32" points="614.6,1010 610,1000.7 613.2,990.8 622.4,986.1 632.2,989.4 636.8,998.7 633.6,1008.6 
				624.4,1013.2 			"/>
			<polygon class="st13" points="622.4,986.1 632.2,989.4 632.2,989.4 635.2,985.8 622.1,981.4 622.4,986.2 			"/>
			<polygon class="st27" points="636.8,998.7 641.5,998.3 635.2,985.8 632.2,989.4 			"/>
			<polygon class="st33" points="610,1000.7 605.3,1001 609.7,987.7 613.2,990.8 			"/>
			<polygon class="st27" points="624.4,1013.1 624.7,1017.9 624.7,1017.9 637.1,1011.6 637.1,1011.5 633.6,1008.5 			"/>
			<polygon class="st25" points="624.4,1013.1 614.6,1009.9 614.6,1009.9 611.6,1013.5 624.7,1017.9 624.4,1013.1 			"/>
			<polygon class="st34" points="610,1000.6 605.3,1000.9 611.6,1013.5 614.6,1009.9 			"/>
			<polygon class="st25" points="636.8,998.6 641.5,998.2 637.1,1011.6 633.6,1008.5 			"/>
			<polygon class="st31" points="155,991.4 154.7,986.7 154.6,986.7 142.2,993 142.2,993 145.8,996.1 			"/>
			<polygon class="st32" points="147.2,1015.3 142.6,1006 145.8,996.1 155,991.4 164.7,994.7 169.4,1004 166.1,1013.9 156.9,1018.5 
							"/>
			<polygon class="st13" points="155,991.4 164.7,994.7 164.8,994.7 167.8,991.1 154.7,986.7 154.9,991.4 			"/>
			<polygon class="st27" points="169.4,1004 174,1003.6 167.8,991.1 164.7,994.7 			"/>
			<polygon class="st33" points="142.6,1006 137.9,1006.3 142.2,993 145.8,996.1 			"/>
			<polygon class="st27" points="157,1018.4 157.2,1023.1 157.3,1023.2 169.7,1016.8 169.7,1016.8 166.1,1013.8 			"/>
			<polygon class="st25" points="156.9,1018.4 147.2,1015.2 147.2,1015.1 144.1,1018.7 157.2,1023.1 157,1018.4 			"/>
			<polygon class="st34" points="142.6,1005.9 137.9,1006.2 144.1,1018.7 147.2,1015.2 			"/>
			<polygon class="st25" points="169.4,1003.9 174,1003.5 169.7,1016.8 166.1,1013.8 			"/>
			<polygon class="st31" points="253.4,1023.2 252.9,1016 252.9,1016 234,1025.6 233.9,1025.6 239.4,1030.3 			"/>
			<polygon class="st32" points="241.5,1059.6 234.4,1045.4 239.4,1030.3 253.4,1023.2 268.3,1028.2 275.4,1042.3 270.4,1057.4 
				256.4,1064.5 			"/>
			<polygon class="st13" points="253.4,1023.2 268.3,1028.2 268.3,1028.2 273,1022.7 252.9,1016 253.3,1023.2 			"/>
			<polygon class="st27" points="275.4,1042.3 282.5,1041.8 273,1022.7 268.3,1028.2 			"/>
			<polygon class="st33" points="234.4,1045.4 227.3,1045.9 234,1025.6 239.4,1030.3 			"/>
			<polygon class="st27" points="256.4,1064.4 256.9,1071.6 256.9,1071.6 275.8,1062 275.9,1061.9 270.4,1057.3 			"/>
			<polygon class="st25" points="256.4,1064.4 241.5,1059.4 241.5,1059.4 236.8,1064.9 256.9,1071.6 256.4,1064.4 			"/>
			<polygon class="st34" points="234.4,1045.2 227.3,1045.8 236.8,1064.9 241.5,1059.4 			"/>
			<polygon class="st25" points="275.4,1042.2 282.5,1041.7 275.8,1062 270.4,1057.3 			"/>
			
				<linearGradient id="SVGID_19_" gradientUnits="userSpaceOnUse" x1="387.9843" y1="655.2248" x2="388.2737" y2="822.6193" gradientTransform="matrix(1 0 0 -1 0 1848.0873)">
				<stop  offset="0" style="stop-color:#453937"/>
				<stop  offset="0.1929" style="stop-color:#A37454"/>
				<stop  offset="0.3951" style="stop-color:#CC8D3F"/>
				<stop  offset="0.5093" style="stop-color:#DBBA5C"/>
				<stop  offset="0.6285" style="stop-color:#BF843B"/>
				<stop  offset="0.8073" style="stop-color:#99624F"/>
				<stop  offset="1" style="stop-color:#453937"/>
			</linearGradient>
			<path class="st35" d="M353.1,1130.4l-39.4-68.8c-9.1-1.2-18.1-2.5-27-4.1l-0.2-0.1c1.8-4.3,2.7-8.9,2.7-13.5
				c0-1.3-0.1-2.5-0.2-3.8l0.4-0.1c15.2,2.5,30.7,4.4,46.6,5.8l0.6,0.5l-5.7,7.6l62.3,109.4l62.3-109.4l-7.1-9.5l0.4-0.3
				c13.3-1.5,26.4-3.5,39.2-5.8l0.2,0c-0.3,1.8-0.5,3.7-0.5,5.6c0,4,0.7,8.1,2.1,11.9l-0.3,0.1c-5.3,1-10.7,2-16.1,2.9l-39.5,70
				l-40.7,72.1L353.1,1130.4z"/>
			
				<radialGradient id="SVGID_20_" cx="480.9737" cy="1700.0714" r="195.6127" fx="480.9738" fy="1700.0714" gradientTransform="matrix(1.0546 0 0 -1.0636 -44.0873 1882.5737)" gradientUnits="userSpaceOnUse">
				<stop  offset="0.1592" style="stop-color:#CFC866"/>
				<stop  offset="0.1952" style="stop-color:#A37454"/>
				<stop  offset="0.2914" style="stop-color:#E3E2AE"/>
				<stop  offset="0.4525" style="stop-color:#CFC866"/>
				<stop  offset="0.7961" style="stop-color:#99624F"/>
				<stop  offset="1" style="stop-color:#453937"/>
			</radialGradient>
			<path class="st36" d="M732.3,28.7h-13.1c-3.2,22.3-17.7,41.3-36.9,52.8c-19.2,11.6-41.5,16.8-63.6,20.5
				c-56.5,9.6-183.6,9.8-275.6,8.8c-46.9-0.5-84.7-1.3-99.3-1.4c-8.6,0-33.8,0.8-42-1.9c-8.2-2.7-13.3-7-15.9-15.3
				c-2.6-8.3,5.2-26.1,13.1-29.8c-1,0.4-2.1,0.8-3.3,1.3c0,0-0.1,0-0.2,0.1c-0.6,0.3-1.3,0.6-2,0.8l-0.1,0.1
				c-8.1,4-14.2,11.3-16.8,20c-2.4,7.8-3.8,17.3,7.6,34.7l0.1,0.6c44.8-5.2,121-5.2,158.8-4.8c13.9,0.2,22.5,0.3,22.5,0.3
				c150.8,1.9,301.7,15.4,385.7-57.8v-10C751.3,37.2,742.8,28.7,732.3,28.7C732.3,28.7,732.3,28.7,732.3,28.7z"/>
			
				<radialGradient id="SVGID_21_" cx="149.7542" cy="1621.3306" r="92.7361" gradientTransform="matrix(1.0546 0 0 -1.0636 -44.0873 1882.5737)" gradientUnits="userSpaceOnUse">
				<stop  offset="0" style="stop-color:#453937"/>
				<stop  offset="0.2337" style="stop-color:#A37454"/>
				<stop  offset="0.4162" style="stop-color:#CFC866"/>
				<stop  offset="0.4935" style="stop-color:#E3E2AE"/>
				<stop  offset="0.5763" style="stop-color:#CFC866"/>
				<stop  offset="0.7961" style="stop-color:#99624F"/>
				<stop  offset="1" style="stop-color:#453937"/>
			</radialGradient>
			<path class="st37" d="M193.5,64.7c-8.1,4-14.2,11.3-16.8,20c-2.4,7.8-3.8,17.3,7.6,34.7l0.1,0.6c-12,1.4-21.7,3.2-27.8,5.4
				c-60.9,22.4-120.1,63.4-138.6,126h-0.7v-9.4c0,0,17-46.6,27.5-64.6C51.3,166,65.4,149,74,139.1c3.6-4.1,6.2-7,7-7.9
				c0,0,0.1-0.1,0.1-0.1c2.6-2,13.3-10.1,18.5-13.8c6.7-4.7,13.5-9.2,20.4-13.4C131.8,96.5,172.7,73.7,193.5,64.7z"/>
			
				<linearGradient id="SVGID_22_" gradientUnits="userSpaceOnUse" x1="80.4726" y1="1764.1212" x2="681.6405" y2="1764.1212" gradientTransform="matrix(1 0 0 -1 0 1848.0873)">
				<stop  offset="0" style="stop-color:#453937"/>
				<stop  offset="0.3619" style="stop-color:#99624F"/>
				<stop  offset="0.6872" style="stop-color:#CFC866"/>
				<stop  offset="0.7477" style="stop-color:#FDFCB3"/>
				<stop  offset="0.8222" style="stop-color:#FDFCB3"/>
				<stop  offset="0.9339" style="stop-color:#9E6C52"/>
			</linearGradient>
			<path class="st38" d="M548.4,38.5c15.4,0,30.8-0.1,46.1-0.1l45.5-0.1c8.4,0,25.2,0.2,25.1-0.1c0-0.2,16-0.3,16.4,0.2
				c-1.9,14-9.4,26.6-20.9,34.7c-6,4.5-12.7,7.9-19.9,10c-3.4,1-14.5,3.5-20.5,2.3c6.4-2.2,17.7-8.2,22.4-12.9
				c4.7-4.8,6.1-11.5,6.1-18.1c0-10.1-8.2-10.1-8.2-10.1c-45.1,0-107.3-0.9-153.7-1.3c-39.1-0.3-78.1-0.3-117.2-0.1
				c-19.5,0.1-51.8,1.4-71.3,3.3c-61.5,6-81.6,10.3-97.4,15.1c-15.4,4.7-67.6,33.8-81.2,42.2c-6.9,4.3-13.7,8.7-20.4,13.4
				c-6,4.2-19,14.3-19,14.3c19.1-22.5,40.5-38.8,66.3-54.9c16.1-10,39.1-22.7,102.5-34.2C308.6,31.8,548.4,38.5,548.4,38.5z"/>
			
				<linearGradient id="SVGID_23_" gradientUnits="userSpaceOnUse" x1="48.6886" y1="1777.7736" x2="65.8727" y2="1777.7736" gradientTransform="matrix(1 0 0 -1 0 1848.0873)">
				<stop  offset="0.1592" style="stop-color:#CFC866"/>
				<stop  offset="0.1952" style="stop-color:#A37454"/>
				<stop  offset="0.2914" style="stop-color:#E3E2AE"/>
				<stop  offset="0.4525" style="stop-color:#CFC866"/>
				<stop  offset="0.7961" style="stop-color:#99624F"/>
				<stop  offset="1" style="stop-color:#453937"/>
			</linearGradient>
			<ellipse class="st39" cx="57.3" cy="70.3" rx="8.6" ry="8.7"/>
			<path class="st40" d="M17.8,0h732.9c9.8,0,17.8,8,17.8,18v1244.7c0,9.9-8,18-17.8,18H17.8c-9.8,0-17.8-8-17.8-18V18
				C0,8.1,8,0,17.8,0z"/>
			<path class="st40" d="M29.4,19.3h709.8c9.8,0,17.8,8,17.8,18v1206.2c0,9.9-8,18-17.8,18H29.4c-9.8,0-17.8-8-17.8-18V37.2
				C11.6,27.3,19.5,19.3,29.4,19.3z"/>
			<path class="st40" d="M35,28.7h698.5c9.8,0,17.8,8,17.8,18V1234c0,9.9-8,18-17.8,18H35c-9.8,0-17.8-8-17.8-18V46.6
				C17.2,36.7,25.2,28.7,35,28.7z"/>
			<path class="st40" d="M528.8,1252c48.6-12.3,99.9-39.1,137.3-72.7c37.9-34.6,67.1-77.7,85.2-125.9c-0.3,1.5-1.4,5-1.7,6.5"/>
			<path class="st40" d="M574.3,1252.3c79.1-23.3,143.6-76.2,177.1-152.1"/>
			<path class="st40" d="M671.9,1202.5c2.4,2.6,4.3,5.5,7.4,7.2c12.1,6.8,27.4,2.4,34.2-9.8c1.8-3.2,2.8-6.7,3.1-10.4
				c0.6-8.4-1.5-16.6-8.1-21.7"/>
			
				<linearGradient id="SVGID_24_" gradientUnits="userSpaceOnUse" x1="709.3281" y1="617.6982" x2="731.8375" y2="617.6982" gradientTransform="matrix(1 0 0 -1 0 1848.0873)">
				<stop  offset="5.640000e-02" style="stop-color:#4F413B"/>
				<stop  offset="0.2337" style="stop-color:#805828"/>
				<stop  offset="0.4162" style="stop-color:#A36840"/>
				<stop  offset="0.4935" style="stop-color:#A38140"/>
				<stop  offset="0.5763" style="stop-color:#A36840"/>
				<stop  offset="0.7961" style="stop-color:#805828"/>
				<stop  offset="0.9823" style="stop-color:#453634"/>
			</linearGradient>
			<path class="st41" d="M724.6,1222.9c-0.2,1.2-0.5,2.4-0.9,3.6c-0.2,1.4,0.8,2.4,1.5,3.6l4.9,8.4c1.3,1.9,1.9,4.2,1.6,6.5
				c0,0.2-0.1,0.3-0.2,0.4c-0.1,0.1-0.3,0.2-0.5,0.1c-0.6,0-1.2-0.3-1.6-0.7c-0.6-0.5-1.2-1.2-1.6-1.9c-1.8-2.8-3.6-5.6-5.4-8.3
				c-1.1-1.6-1.9-3.5-3.9-4c-2.3-0.6-4.2-0.2-6.2-1.8c-3.3-2.6-3.9-7.4-1.4-10.8c2.6-3.4,7.4-4,10.7-1.4
				C723.5,1218.2,724.6,1220.5,724.6,1222.9L724.6,1222.9z"/>
			<path class="st40" d="M137.4,987.9C63.5,945.8,17.2,885,17.2,817.5"/>
			<path class="st40" d="M225.5,1025.1c-15.3-4.6-30.4-10-45.1-16.1"/>
			<path class="st40" d="M336.1,1045.7c-15.9-1.3-31.4-3.2-46.6-5.8"/>
			<path class="st40" d="M488.1,1038.2c-12.8,2.4-25.8,4.3-39.2,5.8"/>
			<path class="st40" d="M599.2,1003.7c-16.1,7.3-32.6,13.7-49.4,19"/>
			<path class="st40" d="M751.3,817.5c0,64.2-42.8,122.2-110.3,164"/>
			<path class="st40" d="M354.2,1130.4c-187.5-12.1-337-129.5-337-272.5"/>
			<path class="st40" d="M751.3,858.8c0,138.2-138.5,251.7-317,270"/>
			<path class="st40" d="M17.2,273.7c18.5-62.6,77.3-107.9,139.3-127S356.1,131,356.1,131c18.2-0.5,395.2,0,395.2,0"/>
			<path class="st40" d="M17.9,251.5c18.5-62.6,77.7-103.6,138.6-126c37.3-13.7,209.2-9.9,209.2-9.9
				c150.8,1.9,301.7,15.4,385.7-57.8"/>
			<path class="st40" d="M184.3,119.4c-11.5-17.3-10.1-26.9-7.6-34.7c2.8-9.6,9.9-17.3,19.1-21"/>
			<path class="st40" d="M718,28.8l-202.2,0.4c0,0-223-3.2-278.8,3.9c-75.9,9.6-152.3,69.3-161.8,80.9c-20.2,24.5-45,55.3-58,128.2
				c0,0,17-46.7,27.5-64.6c9.8-17,36.1-46.1,36.5-46.5"/>
			<polygon class="st40" points="393.3,1137.7 347.5,1057.3 393.3,996.1 439.2,1057.3 			"/>
			<polygon class="st40" points="393.3,1163.2 331,1053.8 393.3,970.6 455.6,1053.8 			"/>
			<path class="st40" d="M131,999.6C60.9,955.7,17.2,893.8,17.2,825.2"/>
			<path class="st40" d="M220.1,1040.7c-15.7-5.1-31.1-11.2-46.2-18"/>
			<path class="st40" d="M489.6,1055.7c-5.3,1.1-10.7,2-16.1,2.9l-80.1,142.1l-79.6-139.2c-9.1-1.2-18.1-2.5-27-4.1"/>
			<path class="st40" d="M605.6,1016.9c-16.1,8-32.8,15-49.8,21"/>
			<path class="st40" d="M751.3,825.2c0,65.2-40.4,124.3-104.4,167.6"/>
			<path class="st40" d="M17.2,70.3C24,52.7,40.4,35.1,58.1,28.7"/>
			<path class="st40" d="M64.1,49.3c14.4-8.4,29.5-15.3,45.3-20.6"/>
			<path class="st40" d="M17.2,106.1c3.9-12,10.1-23.2,18.1-32.8"/>
			<path class="st40" d="M100.3,66.5c30.2-16.9,60.7-27.9,94.9-37.9"/>
			<path class="st40" d="M17.2,155c5.8-15.9,14.5-30.6,25.8-43.3"/>
			<path class="st40" d="M67.4,123.6c-9.7-9.8-9.7-25.6,0-35.4c9.7-9.8,25.4-9.8,35.1,0c0.6,0.6,1.1,1.2,1.6,1.8"/>
			<path class="st40" d="M57.2,137.8c-13.8-12.3-18.1-32.2-10.6-49.2"/>
			<line class="st40" x1="56.3" y1="138.7" x2="73.5" y2="138.7"/>
			<line class="st40" x1="67.8" y1="123.3" x2="86" y2="125.3"/>
			<line class="st40" x1="104.1" y1="90.5" x2="107.9" y2="104"/>
			<line class="st40" x1="119.3" y1="80" x2="119.3" y2="95.3"/>
			<path class="st40" d="M46.7,89.7c-10.6-5.9-14.4-19.4-8.5-30.1C44,48.9,57.4,45,68,51c5.1,2.8,8.8,7.5,10.4,13.1
				c0,0,4.3-0.6,6.6-0.6c13.2,0,25.6,6.2,33.6,16.9"/>
			<ellipse class="st40" cx="522.2" cy="1043.8" rx="34.4" ry="34.7"/>
			<ellipse class="st40" cx="522.2" cy="1043.8" rx="27.6" ry="27.8"/>
			<ellipse class="st40" cx="623.4" cy="999.5" rx="24.8" ry="25"/>
			<ellipse class="st40" cx="623.4" cy="999.5" rx="17.6" ry="18"/>
			<ellipse class="st40" cx="155.6" cy="1005.3" rx="24.8" ry="25"/>
			<ellipse class="st40" cx="155.6" cy="1005.3" rx="18.3" ry="18.5"/>
			<ellipse class="st40" cx="254.9" cy="1043.8" rx="34.4" ry="34.7"/>
			<ellipse class="st40" cx="254.9" cy="1043.8" rx="27.6" ry="27.8"/>
			<path class="st40" d="M338.7-0.5l-6.2,19.8"/>
			<path class="st40" d="M462.7,0c-4.7-0.4-10.5,3.5-13.5,7.2c-2.8,3.3-3.7,7.9-2.2,12"/>
			<path class="st40" d="M3,9.3c3.2,6.9,6.9,13.5,11.3,19.6"/>
			<path class="st40" d="M7.6,4.6c3.2,6.4,6.7,12.6,10.5,18.6"/>
			<path class="st40" d="M199.1,62.4c-7.9,3.6-15.8,21.5-13.2,29.8s7.7,12.5,15.9,15.3s33.4,1.9,42,1.9c43.4,0.2,289.7,7,375-7.4
				c22.1-3.7,44.4-8.9,63.6-20.5s33.7-30.5,36.9-52.8"/>
			<path class="st40" d="M751.3,975.4c-45.8,63.4-98.1,118.8-162.7,162.5s-140.2,72.4-218,75.2c-118.8,4.2-233.3-51.4-352.1-50"/>
			<path class="st40" d="M698.2,1229.9c-15.9,2.8-32-3.2-42.2-15.7"/>
			<path class="st40" d="M726.9,1240.8c-8.8,5.7-20.5,3.2-26.1-5.6c-1.1-1.8-2-3.7-2.5-5.8"/>
			<path class="st40" d="M720.6,1152.3c15.9,14.7,19.1,38.7,7.7,57.1l0,0.4c4.7,3.5,7.4,9.1,7.2,15c0,5.2-2.1,10.2-5.9,13.8"/>
			<path class="st40" d="M685.4,1229.8c-8.9,8.2-18.4,15.8-28.4,22.5"/>
			<path class="st40" d="M750.5,1157.8c-4.6,6.3-10.1,13.4-16.4,20.9"/>
			<path class="st40" d="M714.5,1243.8c-3.2,2.9-6.5,5.7-9.9,8.3"/>
			<path class="st40" d="M751.3,1195.9c-4.7,9.1-10.2,17.7-16.4,25.7"/>
			<line class="st40" x1="655.9" y1="1214.1" x2="657" y2="1187.1"/>
			<line class="st40" x1="671.9" y1="1202.5" x2="666.1" y2="1179.3"/>
			<line class="st40" x1="708.4" y1="1167.9" x2="686.4" y2="1159.2"/>
			<line class="st40" x1="720.6" y1="1152.3" x2="692.6" y2="1152.3"/>
			
				<linearGradient id="SVGID_25_" gradientUnits="userSpaceOnUse" x1="783.7921" y1="1787.1132" x2="832.3839" y2="1787.1132" gradientTransform="matrix(1 0 0 -1 0 1848.0873)">
				<stop  offset="0" style="stop-color:#453937"/>
				<stop  offset="0.2337" style="stop-color:#A37454"/>
				<stop  offset="0.4162" style="stop-color:#CFC866"/>
				<stop  offset="0.4935" style="stop-color:#E3E2AE"/>
				<stop  offset="0.5763" style="stop-color:#CFC866"/>
				<stop  offset="0.7961" style="stop-color:#99624F"/>
				<stop  offset="1" style="stop-color:#453937"/>
			</linearGradient>
			<path class="st42" d="M828.6,38.3c4.8,10.4,4.8,22.7,1.5,33.6c-1.5,5.7-4.5,10.9-8.8,14.9c-5.1,4.4-11.9,6-18.4,7.7
				c-6.5,1.7-13.2,3.9-17.7,8.9c0-0.4,0-0.9,0-1.3h-1.4V86.7c4.6-5.8,13.2-8.8,18.4-14c5.1-5.1,9-13.4,8.3-20.7
				c-0.6-7.6-4.6-14.4-10.9-18.6l-0.8-0.3c1.7-4.7,2.9-9.6,3.5-14.6h0C813.7,19.7,823.8,27.9,828.6,38.3z"/>
			
				<linearGradient id="SVGID_26_" gradientUnits="userSpaceOnUse" x1="783.7921" y1="1788.1726" x2="810.6028" y2="1788.1726" gradientTransform="matrix(1 0 0 -1 0 1848.0873)">
				<stop  offset="0" style="stop-color:#453937"/>
				<stop  offset="0.2337" style="stop-color:#A37454"/>
				<stop  offset="0.4162" style="stop-color:#CFC866"/>
				<stop  offset="0.4935" style="stop-color:#E3E2AE"/>
				<stop  offset="0.5763" style="stop-color:#CFC866"/>
				<stop  offset="0.7961" style="stop-color:#99624F"/>
				<stop  offset="1" style="stop-color:#453937"/>
			</linearGradient>
			<path class="st43" d="M810.5,52c0.7,7.3-3.2,15.5-8.3,20.7c-5.2,5.2-13.8,8.2-18.4,14v-9.6c3.3-2.6,6-5.8,8.2-9.4
				c1.7-3,3.7-6.4,3.3-9.8c-0.3-3.5-2.5-6.5-5.7-7.7c4-5.1,7.1-10.9,9.4-16.9l0.8,0.3C805.9,37.6,809.9,44.5,810.5,52z"/>
			
				<radialGradient id="SVGID_27_" cx="742.4905" cy="1762.7059" r="59.3077" fx="707.9893" fy="1731.7063" gradientTransform="matrix(1.0546 0 0 -1.0636 -44.0873 1882.5737)" gradientUnits="userSpaceOnUse">
				<stop  offset="0.1184" style="stop-color:#E3E2AE"/>
				<stop  offset="0.3082" style="stop-color:#CFC866"/>
				<stop  offset="0.7417" style="stop-color:#99624F"/>
				<stop  offset="1" style="stop-color:#453937"/>
			</radialGradient>
			<path class="st44" d="M738.9-53.9c-35.3,0-64,28.9-64,64.5c0,9.4,2.1,18.8,6,27.3c30,7.5,60.7,13.7,85.6,31.4v-0.5
				c6.3-3.1,12.1-7.2,17.1-12.1C796,44.6,802.9,28,802.9,10.6C802.9-25,774.2-53.9,738.9-53.9z"/>
			
				<linearGradient id="SVGID_28_" gradientUnits="userSpaceOnUse" x1="783.6774" y1="1784.5137" x2="795.2965" y2="1784.5137" gradientTransform="matrix(1 0 0 -1 0 1848.0873)">
				<stop  offset="5.640000e-02" style="stop-color:#4F413B"/>
				<stop  offset="0.2337" style="stop-color:#805828"/>
				<stop  offset="0.4162" style="stop-color:#A36840"/>
				<stop  offset="0.4935" style="stop-color:#A38140"/>
				<stop  offset="0.5763" style="stop-color:#A36840"/>
				<stop  offset="0.7961" style="stop-color:#805828"/>
				<stop  offset="0.9823" style="stop-color:#453634"/>
			</linearGradient>
			<path class="st45" d="M795.2,57.8c0.4,3.4-1.6,6.8-3.3,9.8c-2.1,3.6-4.9,6.8-8.2,9.4V56.8l-0.1-0.1c2.1-2.1,4-4.3,5.8-6.6
				C792.7,51.3,795,54.3,795.2,57.8z"/>
			
				<linearGradient id="SVGID_29_" gradientUnits="userSpaceOnUse" x1="766.6071" y1="1656.9999" x2="783.7921" y2="1656.9999" gradientTransform="matrix(1 0 0 -1 0 1848.0873)">
				<stop  offset="0" style="stop-color:#453937"/>
				<stop  offset="0.2337" style="stop-color:#A37454"/>
				<stop  offset="0.4162" style="stop-color:#CFC866"/>
				<stop  offset="0.4935" style="stop-color:#E3E2AE"/>
				<stop  offset="0.5763" style="stop-color:#CFC866"/>
				<stop  offset="0.7961" style="stop-color:#99624F"/>
				<stop  offset="1" style="stop-color:#453937"/>
			</linearGradient>
			<path class="st46" d="M783.8,102.1v205.1c-2.8-0.2-4.6,1.3-6.7,3.1c-2.5,2.2-4.8,4.7-6.6,7.5c-1.5,2.4-2.8,5-3.8,7.7V68.8
				c6.3-3.1,12.1-7.2,17.1-12.1l0.1,0.1L783.8,102.1L783.8,102.1z"/>
			
				<linearGradient id="SVGID_30_" gradientUnits="userSpaceOnUse" x1="636.7711" y1="1812.3503" x2="677.6695" y2="1812.3503" gradientTransform="matrix(1 0 0 -1 0 1848.0873)">
				<stop  offset="0" style="stop-color:#453937"/>
				<stop  offset="0.2337" style="stop-color:#A37454"/>
				<stop  offset="0.4162" style="stop-color:#CFC866"/>
				<stop  offset="0.4935" style="stop-color:#E3E2AE"/>
				<stop  offset="0.5763" style="stop-color:#CFC866"/>
				<stop  offset="0.7961" style="stop-color:#99624F"/>
				<stop  offset="1" style="stop-color:#453937"/>
			</linearGradient>
			<path class="st47" d="M677.7,79.1c-1,1.8-1.8,3.7-2.5,5.7l-0.2-0.1c-24.2-6.7-38.2-29.3-38.2-55.8c0-16,6.6-31.4,18.3-42.3
				c0.3,1.7,0.7,3.4,1.2,5c-6.6,10.2-10,22.2-9.9,34.4C646.3,50.3,659.3,71,677.7,79.1z"/>
			
				<linearGradient id="SVGID_31_" gradientUnits="userSpaceOnUse" x1="136.0227" y1="567.9225" x2="255.6441" y2="567.9225" gradientTransform="matrix(1 0 0 -1 0 1848.0873)">
				<stop  offset="0" style="stop-color:#453937"/>
				<stop  offset="0.2337" style="stop-color:#A37454"/>
				<stop  offset="0.4162" style="stop-color:#CFC866"/>
				<stop  offset="0.4935" style="stop-color:#E3E2AE"/>
				<stop  offset="0.5763" style="stop-color:#CFC866"/>
				<stop  offset="0.7961" style="stop-color:#99624F"/>
				<stop  offset="1" style="stop-color:#453937"/>
			</linearGradient>
			<path class="st48" d="M255.6,1294.1H136c0.9-1.9,1.7-3.8,2.4-5.8h95.2c0,0-13.8-10.6-15.7-18.8h-75.8c0.1-1.1,0.1-2.2,0.1-3.3
				h93.7C238.3,1278.4,255.6,1294.1,255.6,1294.1z"/>
			
				<linearGradient id="SVGID_32_" gradientUnits="userSpaceOnUse" x1="138.4474" y1="569.1452" x2="233.6482" y2="569.1452" gradientTransform="matrix(1 0 0 -1 0 1848.0873)">
				<stop  offset="5.640000e-02" style="stop-color:#4F413B"/>
				<stop  offset="0.2337" style="stop-color:#805828"/>
				<stop  offset="0.4162" style="stop-color:#A36840"/>
				<stop  offset="0.4935" style="stop-color:#A38140"/>
				<stop  offset="0.5763" style="stop-color:#A36840"/>
				<stop  offset="0.7961" style="stop-color:#805828"/>
				<stop  offset="0.9823" style="stop-color:#453634"/>
			</linearGradient>
			<path class="st49" d="M233.6,1288.3h-95.2c2.2-6,3.4-12.4,3.7-18.8H218C219.9,1277.7,233.6,1288.3,233.6,1288.3z"/>
			
				<linearGradient id="SVGID_33_" gradientUnits="userSpaceOnUse" x1="92.2601" y1="587.2377" x2="142.2472" y2="587.2377" gradientTransform="matrix(1 0 0 -1 0 1848.0873)">
				<stop  offset="0" style="stop-color:#453937"/>
				<stop  offset="0.2337" style="stop-color:#A37454"/>
				<stop  offset="0.4162" style="stop-color:#CFC866"/>
				<stop  offset="0.4935" style="stop-color:#E3E2AE"/>
				<stop  offset="0.5763" style="stop-color:#CFC866"/>
				<stop  offset="0.7961" style="stop-color:#99624F"/>
				<stop  offset="1" style="stop-color:#453937"/>
			</linearGradient>
			<path class="st50" d="M142.2,1269.5c-0.3,6.4-1.6,12.8-3.7,18.8c-0.7,2-1.5,3.9-2.4,5.8c-2.9,6.1-7,11.7-12,16.3l-0.4-0.3
				c7.2-10.3,11-22.6,11-35.2c0-27.6-17.9-50.8-42.3-57.7c0.7-1.6,1.2-3.3,1.5-5.1v-0.7c1.2-0.1,2.4-0.2,3.6-0.2
				c24.8,0,44.9,24.6,44.9,54.9C142.2,1267.3,142.2,1268.4,142.2,1269.5z"/>
			
				<linearGradient id="SVGID_34_" gradientUnits="userSpaceOnUse" x1="18.3287" y1="598.4451" x2="134.6099" y2="598.4451" gradientTransform="matrix(1 0 0 -1 0 1848.0873)">
				<stop  offset="0" style="stop-color:#453937"/>
				<stop  offset="0.2337" style="stop-color:#A37454"/>
				<stop  offset="0.4162" style="stop-color:#CFC866"/>
				<stop  offset="0.4935" style="stop-color:#E3E2AE"/>
				<stop  offset="0.5763" style="stop-color:#CFC866"/>
				<stop  offset="0.7961" style="stop-color:#99624F"/>
				<stop  offset="1" style="stop-color:#453937"/>
			</linearGradient>
			<path class="st51" d="M134.6,1274.9c0,12.6-3.8,24.9-11,35.2c-0.1,0.1-0.1,0.1-0.2,0.2l-0.1-0.1c-0.1-5.1-5.9-14.2-5.9-14.2
				c0.3-0.6,0.6-1.3,1-1.9c1.9-3.9,2.8-8.2,2.9-12.5c0-17.5-14.1-31.8-31.5-31.8c-5.2,0-16.2,3.9-16.2,3.9
				c-8.1,0.4-16.3-0.6-24.1-2.9c-8.9-2.1-16.8-7.1-22.6-14.2c-2.6-3.5-4.7-7.4-6-11.6c-0.8-2.5-1.4-5.1-1.9-7.7
				c-0.8-4.2-0.8-8.5,0.1-12.6c1.6-6.1,6-11.1,10.2-15.7l1,0.5c-2.9,4.9-4.4,10.4-4.4,16.1c0,18.1,15.4,32.7,34.4,32.7
				c5.3,0,10.6-1.2,15.4-3.5c7.5-3.6,13.5-9.8,16.7-17.6C116.7,1224.1,134.6,1247.3,134.6,1274.9z"/>
			
				<linearGradient id="SVGID_35_" gradientUnits="userSpaceOnUse" x1="-8.5929" y1="580.816" x2="121.2442" y2="580.816" gradientTransform="matrix(1 0 0 -1 0 1848.0873)">
				<stop  offset="0" style="stop-color:#453937"/>
				<stop  offset="0.2337" style="stop-color:#A37454"/>
				<stop  offset="0.4162" style="stop-color:#CFC866"/>
				<stop  offset="0.4935" style="stop-color:#E3E2AE"/>
				<stop  offset="0.5763" style="stop-color:#CFC866"/>
				<stop  offset="0.7961" style="stop-color:#99624F"/>
				<stop  offset="1" style="stop-color:#453937"/>
			</linearGradient>
			<path class="st52" d="M121.2,1281.6c0,4.3-1,8.6-2.9,12.5H94.3c0.1-1,0.2-1.9,0.2-2.9c0-17.5-21.8-31.8-48.7-31.8
				s-48.7,14.2-48.7,31.8c0,1,0.1,1.9,0.2,2.9l-0.2,0v15.4h-5.7v-56c0.9,0.1,1.9,0.2,2.9,0.2c12.1,0,22-9.9,22-22.1
				c0-1.9-0.2-3.7-0.7-5.5l5.3-1c1.3,4.2,3.4,8.1,6,11.6c5.8,7.1,13.8,12,22.6,14.2c7.8,2.3,15.9,3.3,24.1,2.9
				c0,0,11.1-3.9,16.2-3.9C107.1,1249.8,121.2,1264.1,121.2,1281.6z"/>
			
				<radialGradient id="SVGID_36_" cx="85.2585" cy="567.8223" r="29.035" gradientTransform="matrix(1.0546 0 0 -1.0636 -44.0873 1882.5737)" gradientUnits="userSpaceOnUse">
				<stop  offset="0" style="stop-color:#A38140"/>
				<stop  offset="0.3156" style="stop-color:#A36840"/>
				<stop  offset="0.621" style="stop-color:#805828"/>
				<stop  offset="0.9823" style="stop-color:#453634"/>
			</radialGradient>
			<path class="st53" d="M94.3,1294.1c-0.2,1.1-0.4,2.3-0.7,3.4l-0.5,0.2c-1.8-3.6-4.2-6.8-7-9.6c-9.2-9.2-23.8-15.2-40.3-15.2
				c-16.6,0-31.3,6-40.5,15.4c-2.8,2.8-5.1,5.9-6.8,9.4l-0.4-0.2c-0.3-1.1-0.6-2.3-0.8-3.5c-0.1-1-0.2-1.9-0.2-2.9
				c0-17.5,21.8-31.8,48.7-31.8s48.7,14.2,48.7,31.8C94.5,1292.2,94.4,1293.2,94.3,1294.1z"/>
			
				<linearGradient id="SVGID_37_" gradientUnits="userSpaceOnUse" x1="5.3275" y1="567.4412" x2="86.112" y2="567.4412" gradientTransform="matrix(1 0 0 -1 0 1848.0873)">
				<stop  offset="0" style="stop-color:#453937"/>
				<stop  offset="0.2337" style="stop-color:#A37454"/>
				<stop  offset="0.4162" style="stop-color:#CFC866"/>
				<stop  offset="0.4935" style="stop-color:#E3E2AE"/>
				<stop  offset="0.5763" style="stop-color:#CFC866"/>
				<stop  offset="0.7961" style="stop-color:#99624F"/>
				<stop  offset="1" style="stop-color:#453937"/>
			</linearGradient>
			<path class="st54" d="M86.1,1288.2l-0.2,0.2H5.3c9.2-9.4,23.9-15.4,40.5-15.4C62.3,1272.9,76.9,1278.9,86.1,1288.2z"/>
			
				<linearGradient id="SVGID_38_" gradientUnits="userSpaceOnUse" x1="25.7761" y1="640.4366" x2="75.5913" y2="640.4366" gradientTransform="matrix(1 0 0 -1 0 1848.0873)">
				<stop  offset="0" style="stop-color:#453937"/>
				<stop  offset="0.2337" style="stop-color:#A37454"/>
				<stop  offset="0.4162" style="stop-color:#CFC866"/>
				<stop  offset="0.4935" style="stop-color:#E3E2AE"/>
				<stop  offset="0.5763" style="stop-color:#CFC866"/>
				<stop  offset="0.7961" style="stop-color:#99624F"/>
				<stop  offset="1" style="stop-color:#453937"/>
			</linearGradient>
			<path class="st55" d="M75.4,1234.4l0.2,0.4c-4.8,2.3-10.1,3.5-15.4,3.5c-19,0-34.4-14.7-34.4-32.7c0-5.7,1.5-11.2,4.4-16.1
				c3.2-5.2,7.6-9.5,13-12.4c0,0,0,0,0.1-0.1l0.1,0.2c-8.1,5.3-10,14.6-10,26.4C33.4,1220.6,55.9,1234.4,75.4,1234.4z"/>
			
				<linearGradient id="SVGID_39_" gradientUnits="userSpaceOnUse" x1="14.3201" y1="770.8573" x2="43.1896" y2="770.8573" gradientTransform="matrix(1 0 0 -1 0 1848.0873)">
				<stop  offset="0" style="stop-color:#453937"/>
				<stop  offset="0.2337" style="stop-color:#A37454"/>
				<stop  offset="0.4162" style="stop-color:#CFC866"/>
				<stop  offset="0.4935" style="stop-color:#E3E2AE"/>
				<stop  offset="0.5763" style="stop-color:#CFC866"/>
				<stop  offset="0.7961" style="stop-color:#99624F"/>
				<stop  offset="1" style="stop-color:#453937"/>
			</linearGradient>
			<path class="st56" d="M43,1176.7l0.2,0.4c-2,1.1-3.9,2.3-5.6,3.8l-0.3-0.4l-22.9-15.4V974.7l1-1.2l8.5,8.6h1.9v177.2L43,1176.7z"
				/>
			
				<linearGradient id="SVGID_40_" gradientUnits="userSpaceOnUse" x1="-8.5931" y1="747.7198" x2="37.557" y2="747.7198" gradientTransform="matrix(1 0 0 -1 0 1848.0873)">
				<stop  offset="0" style="stop-color:#453937"/>
				<stop  offset="0.2337" style="stop-color:#A37454"/>
				<stop  offset="0.4162" style="stop-color:#CFC866"/>
				<stop  offset="0.4935" style="stop-color:#E3E2AE"/>
				<stop  offset="0.5763" style="stop-color:#CFC866"/>
				<stop  offset="0.7961" style="stop-color:#99624F"/>
				<stop  offset="1" style="stop-color:#453937"/>
			</linearGradient>
			<path class="st57" d="M37.2,1180.5l0.3,0.4c-2.9,2.4-5.4,5.3-7.4,8.6l-1-0.5c-4.2,4.7-8.6,9.6-10.2,15.7c-0.9,4.1-1,8.4-0.1,12.6
				c0.4,2.6,1.1,5.2,1.9,7.7l-5.3,1c-2.5-9.8-11.3-16.6-21.3-16.6c-1,0-1.9,0.1-2.9,0.2v-208.2l22.9-26.7v190.4L37.2,1180.5z"/>
			
				<radialGradient id="SVGID_41_" cx="45.4266" cy="612.091" r="16.9122" gradientTransform="matrix(1.0546 0 0 -1.0636 -44.0873 1882.5737)" gradientUnits="userSpaceOnUse">
				<stop  offset="5.640000e-02" style="stop-color:#4F413B"/>
				<stop  offset="0.2337" style="stop-color:#805828"/>
				<stop  offset="0.4162" style="stop-color:#A36840"/>
				<stop  offset="0.4935" style="stop-color:#A38140"/>
				<stop  offset="0.5763" style="stop-color:#A36840"/>
				<stop  offset="0.7961" style="stop-color:#805828"/>
				<stop  offset="0.9823" style="stop-color:#453634"/>
			</radialGradient>
			<path class="st58" d="M-4.8,1211.5c-0.9-0.1-1.9-0.2-2.9-0.2c-0.3,0-0.6,0-1,0v-1.8c0.9-0.1,1.9-0.2,2.9-0.2
				c10,0,18.8,6.8,21.3,16.6c0.5,1.8,0.7,3.7,0.7,5.5c0,12.2-9.8,22.1-22,22.1c-1,0-1.9-0.1-2.9-0.2v-1.8c0.3,0,0.6,0,1,0
				c11.1,0,20-9,20-20.2C12.4,1221.5,5.1,1213-4.8,1211.5L-4.8,1211.5z"/>
			<polygon class="st59" points="15.4,973.6 14.3,974.7 14.3,972.5 			"/>
			
				<linearGradient id="SVGID_42_" gradientUnits="userSpaceOnUse" x1="-4.7735" y1="616.5572" x2="12.4137" y2="616.5572" gradientTransform="matrix(1 0 0 -1 0 1848.0873)">
				<stop  offset="0" style="stop-color:#453937"/>
				<stop  offset="0.2337" style="stop-color:#A37454"/>
				<stop  offset="0.4162" style="stop-color:#CFC866"/>
				<stop  offset="0.4935" style="stop-color:#E3E2AE"/>
				<stop  offset="0.5763" style="stop-color:#CFC866"/>
				<stop  offset="0.7961" style="stop-color:#99624F"/>
				<stop  offset="1" style="stop-color:#453937"/>
			</linearGradient>
			<path class="st60" d="M-4.8,1211.5c11,1.6,18.6,11.8,17,22.9c-1.3,8.8-8.1,15.7-16.8,17.1l-0.2-1.7V1211.5z"/>
			
				<linearGradient id="SVGID_43_" gradientUnits="userSpaceOnUse" x1="646.3164" y1="1687.8438" x2="779.377" y2="1687.8438" gradientTransform="matrix(1 0 0 -1 0 1848.0873)">
				<stop  offset="0" style="stop-color:#453937"/>
				<stop  offset="0.2337" style="stop-color:#A37454"/>
				<stop  offset="0.4162" style="stop-color:#CFC866"/>
				<stop  offset="0.4935" style="stop-color:#E3E2AE"/>
				<stop  offset="0.5763" style="stop-color:#CFC866"/>
				<stop  offset="0.7961" style="stop-color:#99624F"/>
				<stop  offset="1" style="stop-color:#453937"/>
			</linearGradient>
			<path class="st61" d="M681.4,38.9l0.2,0.3c-3.1,2.1-6.7,3.2-10.5,3.2c-10.5,0-19.1-8.6-19.1-19.2c0-8,4.9-15.1,12.3-18
				c-3.6-3.9-6.4-8.5-8-13.5c-6.6,10.2-10,22.2-9.9,34.4c0,24.2,13,44.9,31.4,53.1c6.6-12,19-19.4,32.6-19.4
				c18.4,0,32.3,15,35.3,32.7c3.2,0.1,6.5,0.6,9.5,1.6v222c-0.1,2.2-0.1,4.4,0.1,6.6c0.1,1.5,0.8,2.9,1.9,3.9c1.2,1,2.6,1.7,4.1,2
				c1.1,0.4,2.3,0.3,3.4-0.1c1-0.5,2.3-1.9,1.9-3V55.9c-42.1-24.6-62.5-32.2-85.6-17.9C681.1,38.3,681.3,38.6,681.4,38.9z"/>
			<path class="st40" d="M681.4,38.9c-15.5-32-2.3-70.6,29.4-86.3s70-2.4,85.6,29.7S798.7,53,767,68.6c-0.2,0.1-0.4,0.2-0.7,0.3"/>
			<path class="st40" d="M699.1,61.1l-0.2-0.2"/>
			<path class="st40" d="M675,84.8c-24.2-6.7-38.2-29.3-38.2-55.8c0-16.4,6.9-32,19-43"/>
			<path class="st40" d="M690.1,21.2c0.1,0.7,0.1,1.3,0.1,2c0,10.6-8.6,19.3-19.1,19.3c-10.5,0-19.1-8.6-19.1-19.3
				c0-8.3,5.2-15.6,13-18.3"/>
			<path class="st40" d="M654.9-13.8c1.2,7.4,4.6,14.1,9.8,19.4"/>
			<path class="st40" d="M677.7,79.1C659.3,71,646.3,50.3,646.3,26c-0.1-12.4,3.5-24.5,10.2-34.8"/>
			<path class="st40" d="M755.2,93.4v222.6c-0.1,2.2-0.1,4.4,0.1,6.6c0.1,1.5,0.8,2.9,1.9,3.9c1.2,1,2.6,1.7,4.1,2
				c1.1,0.4,2.3,0.3,3.4-0.1c1.1-0.5,2.3-1.9,1.9-3l0.3-270.1c-13.6-7-22-11.6-26.1-19c-2.8-5-0.6-16.7,1.8-21.4"/>
			<path class="st40" d="M756.2,94.6c-3.3-2-10.6-2.1-10.6-2.1c-3-17.7-16.9-32.7-35.3-32.7c-16,0-30.2,10.3-35.3,25.7"/>
			<path class="st40" d="M783.8,56.8v250.3c-2.8-0.1-4.6,1.3-6.7,3.1c-2.5,2.2-4.8,4.7-6.6,7.5c-1.5,2.4-2.8,5-3.8,7.7"/>
			<path class="st40" d="M802.4,18.5c11.3,1.1,21.3,9.3,26.1,19.7s4.8,22.7,1.5,33.7c-1.5,5.7-4.5,10.9-8.8,14.9
				c-5.1,4.4-11.9,6-18.4,7.7c-6.5,1.7-13.2,3.9-17.7,8.9l0-1.3"/>
			<path class="st40" d="M799.6,33.4c6.3,4.2,10.3,11,10.9,18.6c0.7,7.3-3.1,15.5-8.3,20.7c-5.2,5.2-13.8,8.2-18.4,14"/>
			<path class="st40" d="M783.8,77.1c3.3-2.6,6-5.8,8.2-9.4c1.7-3,3.7-6.4,3.3-9.8c-0.3-3.5-2.5-6.5-5.7-7.7"/>
			<line class="st40" x1="-8.6" y1="1001.4" x2="-8.6" y2="1211.3"/>
			<line class="st40" x1="16.2" y1="972.5" x2="-8.6" y2="1001.4"/>
			<line class="st40" x1="14.3" y1="1165.1" x2="14.3" y2="972.5"/>
			<line class="st40" x1="23.9" y1="982.2" x2="14.3" y2="972.5"/>
			<line class="st40" x1="25.8" y1="1159.3" x2="25.8" y2="982.2"/>
			<line class="st40" x1="14.3" y1="1165.1" x2="37.2" y2="1180.5"/>
			<line class="st40" x1="25.8" y1="1159.3" x2="43" y2="1176.7"/>
			<line class="st40" x1="-8.6" y1="1251.8" x2="-8.6" y2="1298"/>
			<path class="st40" d="M93.6,1297.5c0.6-2,0.9-4.2,1-6.3c0-17.5-21.8-31.8-48.7-31.8s-48.7,14.2-48.7,31.8c0,2.2,0.3,4.3,1,6.4"/>
			<polyline class="st40" points="-8.6,1298 -8.6,1309.5 -7.6,1309.5 -3.8,1309.5 -2.9,1309.5 -2.9,1294.1 			"/>
			<path class="st40" d="M-1.9,1298.6c7-14.9,25.7-25.7,47.7-25.7c22,0,40.8,10.7,47.7,25.7"/>
			<path class="st40" d="M-8.6,1209.6c12-1.6,23,7,24.6,19.1s-6.9,23.2-18.9,24.8c-1.9,0.2-3.8,0.2-5.7,0"/>
			<line class="st40" x1="-4.8" y1="1211.3" x2="-4.8" y2="1249.8"/>
			<line class="st40" x1="93.6" y1="1294.1" x2="118.4" y2="1294.1"/>
			<line class="st40" x1="4.8" y1="1288.3" x2="85.9" y2="1288.3"/>
			<path class="st40" d="M93.8,1212.1c-3.2,14.9-17.1,26.1-33.7,26.1c-19,0-34.4-14.7-34.4-32.7c0.1-12.3,7.2-23.5,18.1-28.8"/>
			<path class="st40" d="M75.4,1234.4c-19.5,0-42-13.8-42-30.8c0-11.8,1.8-21.1,10-26.4"/>
			<path class="st40" d="M92.3,1217.2c24.4,6.8,42.3,30.1,42.3,57.6c0,12.7-3.9,25.1-11.2,35.5"/>
			<path class="st40" d="M93.8,1211.5c1.2-0.1,2.4-0.2,3.6-0.2c24.8,0,44.9,24.6,44.9,54.9c0,18.1-7.2,34.2-18.2,44.2"/>
			<path class="st40" d="M29.2,1189c-4.2,4.7-8.6,9.6-10.2,15.7c-0.9,4.1-1,8.4-0.1,12.6c1,7,3.7,13.6,7.9,19.3
				c5.8,7.1,13.8,12,22.6,14.2c7.8,2.3,15.9,3.3,24.1,2.9c0,0,11.1-3.9,16.2-3.9c17.4,0,31.5,14.2,31.5,31.8
				c-0.1,5.1-1.4,10-3.8,14.4c0,0,5.8,9,5.9,14.2"/>
			<path class="st40" d="M142.2,1266.2h93.7c2.4,12.2,19.7,27.9,19.7,27.9H136"/>
			<path class="st40" d="M141.2,1269.5H218c1.9,8.2,15.7,18.8,15.7,18.8h-95.2"/>
			<path class="st62" d="M254.6,905.8c-27-0.2-48.7-22.4-48.5-49.6V281.3c-0.1-27.2,21.6-49.4,48.5-49.6h223.7
				c27,0.2,48.7,22.4,48.5,49.6v574.9c0.1,27.2-21.6,49.4-48.5,49.6H254.6z"/>
			
				<image style="overflow:visible;enable-background:new    ;" width="180" height="374" xlink:href="E212B8960A3AB433.png"  transform="matrix(1.7906 0 0 1.8059 204.1896 231.441)">
			</image>
			<path class="st63" d="M254.6,247.5h223.7c18.2,0,32.9,14.9,32.9,33.2v0v567.6c0,18.4-14.7,33.2-32.9,33.2l0,0H254.6
				c-18.2,0-32.9-14.9-32.9-33.2l0,0V280.7C221.6,262.4,236.4,247.5,254.6,247.5L254.6,247.5L254.6,247.5z"/>
			
				<linearGradient id="SVGID_44_" gradientUnits="userSpaceOnUse" x1="193.0036" y1="1479.1108" x2="516.2955" y2="1479.1108" gradientTransform="matrix(1 0 0 -1 0 1848.0873)">
				<stop  offset="0" style="stop-color:#453937"/>
				<stop  offset="0.2337" style="stop-color:#A37454"/>
				<stop  offset="0.4162" style="stop-color:#CFC866"/>
				<stop  offset="0.4935" style="stop-color:#E3E2AE"/>
				<stop  offset="0.5429" style="stop-color:#CFC866"/>
				<stop  offset="0.686" style="stop-color:#99624F"/>
				<stop  offset="0.7615" style="stop-color:#453937"/>
			</linearGradient>
			<path class="st64" d="M256.4,316.3h207.3c8.7,0,15.8,7.2,15.8,16v73.4c0,8.8-7.1,16-15.8,16H256.4c-8.7,0-15.8-7.2-15.8-16v-73.4
				C240.5,323.5,247.6,316.3,256.4,316.3z"/>
			
				<linearGradient id="SVGID_45_" gradientUnits="userSpaceOnUse" x1="227.6904" y1="1066.7229" x2="504.8913" y2="1066.7229" gradientTransform="matrix(1 0 0 -1 0 1848.0873)">
				<stop  offset="0" style="stop-color:#453937"/>
				<stop  offset="0.2337" style="stop-color:#A37454"/>
				<stop  offset="0.4162" style="stop-color:#CFC866"/>
				<stop  offset="0.4935" style="stop-color:#E3E2AE"/>
				<stop  offset="0.5763" style="stop-color:#CFC866"/>
				<stop  offset="0.7961" style="stop-color:#99624F"/>
				<stop  offset="1" style="stop-color:#453937"/>
			</linearGradient>
			<path class="st65" d="M249.7,763.7h220.6c5.1,0,9.2,4.1,9.2,9.3v16.9c0,5.1-4.1,9.3-9.2,9.3H249.7c-5.1,0-9.2-4.1-9.2-9.3v-16.9
				C240.5,767.8,244.6,763.7,249.7,763.7z"/>
			
				<linearGradient id="SVGID_46_" gradientUnits="userSpaceOnUse" x1="216.7082" y1="1244.6967" x2="366.5304" y2="1244.6967" gradientTransform="matrix(1 0 0 -1 0 1848.0873)">
				<stop  offset="0" style="stop-color:#453937"/>
				<stop  offset="0.2337" style="stop-color:#A37454"/>
				<stop  offset="0.4162" style="stop-color:#CFC866"/>
				<stop  offset="0.4935" style="stop-color:#E3E2AE"/>
				<stop  offset="0.5763" style="stop-color:#CFC866"/>
				<stop  offset="0.7961" style="stop-color:#99624F"/>
				<stop  offset="1" style="stop-color:#453937"/>
			</linearGradient>
			<path class="st66" d="M353.1,474v258.7c0,8.6-6.9,15.6-15.5,15.6l0,0h-88.7c-8.5,0-15.5-7-15.5-15.6l0,0V474
				c0-8.6,6.9-15.6,15.5-15.6l0,0h88.7C346.1,458.5,353.1,465.4,353.1,474C353.1,474,353.1,474,353.1,474z"/>
			<path class="st67" d="M321.3,499.9h-54.6c-1.5-0.3-2.5-1.7-2.2-3.2c0.2-1.1,1.1-2,2.2-2.2h54.6c1.5,0.3,2.5,1.7,2.2,3.2
				C323.3,498.8,322.4,499.7,321.3,499.9z"/>
			<path class="st67" d="M321.3,522.4h-54.6c-1.5-0.3-2.5-1.7-2.2-3.2c0.2-1.1,1.1-2,2.2-2.2h54.6c1.5,0.3,2.5,1.7,2.2,3.2
				C323.3,521.3,322.4,522.2,321.3,522.4z"/>
			<path class="st67" d="M321.3,544.9h-54.6c-1.5-0.3-2.5-1.7-2.2-3.2c0.2-1.1,1.1-2,2.2-2.2h54.6c1.5,0.3,2.5,1.7,2.2,3.2
				C323.3,543.8,322.4,544.7,321.3,544.9z"/>
			<path class="st67" d="M321.3,567.4h-54.6c-1.5-0.3-2.5-1.7-2.2-3.2c0.2-1.1,1.1-2,2.2-2.2h54.6c1.5,0.3,2.5,1.7,2.2,3.2
				C323.3,566.3,322.4,567.2,321.3,567.4z"/>
			<path class="st67" d="M321.3,589.9h-54.6c-1.5-0.3-2.5-1.7-2.2-3.2c0.2-1.1,1.1-2,2.2-2.2h54.6c1.5,0.3,2.5,1.7,2.2,3.2
				C323.3,588.8,322.4,589.7,321.3,589.9z"/>
			<path class="st67" d="M321.3,612.4h-54.6c-1.5-0.3-2.5-1.7-2.2-3.2c0.2-1.1,1.1-2,2.2-2.2h54.6c1.5,0.3,2.5,1.7,2.2,3.2
				C323.3,611.3,322.4,612.2,321.3,612.4z"/>
			<path class="st67" d="M321.3,634.9h-54.6c-1.5-0.3-2.5-1.7-2.2-3.2c0.2-1.1,1.1-2,2.2-2.2h54.6c1.5,0.3,2.5,1.7,2.2,3.2
				C323.3,633.8,322.4,634.7,321.3,634.9z"/>
			<path class="st67" d="M321.3,657.4h-54.6c-1.5-0.3-2.5-1.7-2.2-3.2c0.2-1.1,1.1-2,2.2-2.2h54.6c1.5,0.3,2.5,1.7,2.2,3.2
				C323.3,656.3,322.4,657.2,321.3,657.4z"/>
			<path class="st67" d="M321.3,679.9h-54.6c-1.5-0.3-2.5-1.7-2.2-3.2c0.2-1.1,1.1-2,2.2-2.2h54.6c1.5,0.3,2.5,1.7,2.2,3.2
				C323.3,678.8,322.4,679.7,321.3,679.9z"/>
			<path class="st67" d="M321.3,702.4h-54.6c-1.5-0.3-2.5-1.7-2.2-3.2c0.2-1.1,1.1-2,2.2-2.2h54.6c1.5,0.3,2.5,1.7,2.2,3.2
				C323.3,701.3,322.4,702.2,321.3,702.4z"/>
			<path class="st67" d="M321.3,724.9h-54.6c-1.5-0.3-2.5-1.7-2.2-3.2c0.2-1.1,1.1-2,2.2-2.2h54.6c1.5,0.3,2.5,1.7,2.2,3.2
				C323.3,723.8,322.4,724.7,321.3,724.9z"/>
			
				<linearGradient id="SVGID_47_" gradientUnits="userSpaceOnUse" x1="357.7781" y1="1242.0164" x2="491.1423" y2="1242.0164" gradientTransform="matrix(1 0 0 -1 0 1848.0873)">
				<stop  offset="0" style="stop-color:#453937"/>
				<stop  offset="0.2337" style="stop-color:#A37454"/>
				<stop  offset="0.4162" style="stop-color:#CFC866"/>
				<stop  offset="0.4935" style="stop-color:#E3E2AE"/>
				<stop  offset="0.5763" style="stop-color:#CFC866"/>
				<stop  offset="0.7961" style="stop-color:#99624F"/>
				<stop  offset="1" style="stop-color:#453937"/>
			</linearGradient>
			<path class="st68" d="M485.5,479.4v253.3c0,8.6-6.9,15.6-15.5,15.6c0,0,0,0,0,0h-86.5c-8.5,0-15.5-7-15.5-15.6l0,0V479.4
				c0-8.6,6.9-15.6,15.5-15.6l0,0H470C478.6,463.8,485.5,470.8,485.5,479.4z"/>
			<path class="st67" d="M454.1,491.9h-54.6c-1.5-0.3-2.5-1.9-2.2-3.4c0.2-1.1,1.1-1.9,2.2-2.2h54.6c1.5,0.3,2.5,1.9,2.2,3.4
				C456,490.8,455.2,491.6,454.1,491.9z"/>
			<path class="st67" d="M454.1,515h-54.6c-1.5-0.3-2.5-1.9-2.2-3.4c0.2-1.1,1.1-1.9,2.2-2.2h54.6c1.5,0.3,2.5,1.9,2.2,3.4
				C456,513.9,455.2,514.7,454.1,515z"/>
			<path class="st67" d="M454.1,538.1h-54.6c-1.5-0.3-2.5-1.9-2.2-3.4c0.2-1.1,1.1-1.9,2.2-2.2h54.6c1.5,0.3,2.5,1.9,2.2,3.4
				C456,537,455.2,537.9,454.1,538.1z"/>
			<path class="st67" d="M454.1,561.2h-54.6c-1.5-0.3-2.5-1.9-2.2-3.4c0.2-1.1,1.1-1.9,2.2-2.2h54.6c1.5,0.3,2.5,1.9,2.2,3.4
				C456,560.1,455.2,561,454.1,561.2z"/>
			<path class="st67" d="M454.1,584.3h-54.6c-1.5-0.3-2.5-1.9-2.2-3.4c0.2-1.1,1.1-1.9,2.2-2.2h54.6c1.5,0.3,2.5,1.9,2.2,3.4
				C456,583.2,455.2,584.1,454.1,584.3z"/>
			<path class="st67" d="M454.1,607.5h-54.6c-1.5-0.3-2.5-1.9-2.2-3.4c0.2-1.1,1.1-1.9,2.2-2.2h54.6c1.5,0.3,2.5,1.9,2.2,3.4
				C456,606.4,455.2,607.2,454.1,607.5z"/>
			<path class="st67" d="M454.1,630.6h-54.6c-1.5-0.3-2.5-1.9-2.2-3.4c0.2-1.1,1.1-1.9,2.2-2.2h54.6c1.5,0.3,2.5,1.9,2.2,3.4
				C456,629.5,455.2,630.3,454.1,630.6z"/>
			<path class="st67" d="M454.1,653.7h-54.6c-1.5-0.3-2.5-1.9-2.2-3.4c0.2-1.1,1.1-1.9,2.2-2.2h54.6c1.5,0.3,2.5,1.9,2.2,3.4
				C456,652.6,455.2,653.5,454.1,653.7z"/>
			<path class="st67" d="M454.1,676.8h-54.6c-1.5-0.3-2.5-1.9-2.2-3.4c0.2-1.1,1.1-1.9,2.2-2.2h54.6c1.5,0.3,2.5,1.9,2.2,3.4
				C456,675.7,455.2,676.6,454.1,676.8z"/>
			<path class="st67" d="M454.1,699.9h-54.6c-1.5-0.3-2.5-1.9-2.2-3.4c0.2-1.1,1.1-1.9,2.2-2.2h54.6c1.5,0.3,2.5,1.9,2.2,3.4
				C456,698.9,455.2,699.7,454.1,699.9z"/>
			<path class="st67" d="M454.1,723.1h-54.6c-1.5-0.3-2.5-1.9-2.2-3.4c0.2-1.1,1.1-1.9,2.2-2.2h54.6c1.5,0.3,2.5,1.9,2.2,3.4
				C456,722,455.2,722.8,454.1,723.1z"/>
			
				<linearGradient id="SVGID_48_" gradientUnits="userSpaceOnUse" x1="276.813" y1="1009.701" x2="456.0446" y2="1009.701" gradientTransform="matrix(1 0 0 -1 0 1848.0873)">
				<stop  offset="0" style="stop-color:#453937"/>
				<stop  offset="0.2337" style="stop-color:#A37454"/>
				<stop  offset="0.4162" style="stop-color:#CFC866"/>
				<stop  offset="0.4935" style="stop-color:#E3E2AE"/>
				<stop  offset="0.5763" style="stop-color:#CFC866"/>
				<stop  offset="0.7961" style="stop-color:#99624F"/>
				<stop  offset="1" style="stop-color:#453937"/>
			</linearGradient>
			<path class="st69" d="M433.9,860.7H298.9c-12.2,0-22.1-10-22.1-22.4c0-12.3,9.9-22.3,22.1-22.3h134.9c12.2,0,22.2,10,22.2,22.3
				C456.1,850.7,446.1,860.7,433.9,860.7C433.9,860.7,433.9,860.7,433.9,860.7z M298.9,818.3c-11,0-19.9,9.1-19.9,20.2
				c0,11.1,8.9,20,19.9,20h134.9c11,0,19.9-8.9,20-20c0-11.1-8.9-20.1-19.9-20.2c0,0-0.1,0-0.1,0H298.9z"/>
			
				<radialGradient id="SVGID_49_" cx="550.7234" cy="1403.1199" r="104.4132" gradientTransform="matrix(1.0546 0 0 -1.0636 -44.0873 1882.5737)" gradientUnits="userSpaceOnUse">
				<stop  offset="0" style="stop-color:#04B8CC"/>
				<stop  offset="0.2933" style="stop-color:#05A1B3"/>
				<stop  offset="0.6471" style="stop-color:#035C66"/>
				<stop  offset="1" style="stop-color:#012E33"/>
			</radialGradient>
			<path class="st70" d="M456.8,297.4h159.8c25.2,0,45.7,20.6,45.7,46.1v0v93.4c0,25.5-20.5,46.1-45.7,46.1H456.8
				c-25.2,0-45.7-20.6-45.7-46.1v-93.4C411.1,318,431.5,297.4,456.8,297.4z"/>
			
				<image style="overflow:visible;enable-background:new    ;" width="147" height="110" xlink:href="E212B8960A3AB434.png"  transform="matrix(1.7906 0 0 1.8059 404.7332 291.0369)">
			</image>
			
				<image style="overflow:visible;opacity:0.7;enable-background:new    ;" width="135" height="98" xlink:href="E212B8960A3AB435.png"  transform="matrix(1.7906 0 0 1.8059 62.7347 442.7356)">
			</image>
			<path class="st71" d="M238.2,516H130c-7.8,0-14.1,6.4-14.1,14.2c0,7.8,6.3,14.2,14.1,14.2h108.3c7.8,0,14.1-6.4,14.1-14.2
				C252.3,522.3,246,516,238.2,516L238.2,516z"/>
			<path class="st71" d="M130,503.1h108.3c7.8,0,14.1-6.4,14.1-14.2c0-7.8-6.3-14.2-14.1-14.2l0,0H130c-7.8,0-14.1,6.4-14.1,14.2
				C115.9,496.7,122.2,503.1,130,503.1L130,503.1z"/>
			<path class="st71" d="M201.9,566h-80.8c-1.7,0-3.1-1.4-3-3.1c0-1.7,1.4-3.1,3-3.1h80.8c1.7,0,3.1,1.4,3.1,3.1
				C205,564.6,203.6,566,201.9,566C201.9,566,201.9,566,201.9,566z"/>
			<path class="st71" d="M247.1,578.7H121.1c-1.7,0-3.1-1.4-3.1-3.1c0-1.7,1.4-3.1,3.1-3.1c0,0,0,0,0,0h126.1c1.7,0,3.1,1.4,3.1,3.1
				C250.2,577.3,248.8,578.7,247.1,578.7z"/>
			
				<radialGradient id="SVGID_50_" cx="242.0864" cy="1270.6256" r="104.4107" gradientTransform="matrix(1.0322 0 0 -1.0636 -62.9987 1882.5737)" gradientUnits="userSpaceOnUse">
				<stop  offset="0" style="stop-color:#04B8CC"/>
				<stop  offset="0.2933" style="stop-color:#05A1B3"/>
				<stop  offset="0.6471" style="stop-color:#035C66"/>
				<stop  offset="1" style="stop-color:#012E33"/>
			</radialGradient>
			<path class="st72" d="M265.1,623.9H108.7c-24.7,0-44.7-20.6-44.7-46.1v-93.4c0-25.5,20-46.1,44.7-46.1h156.5
				c24.7,0,44.7,20.6,44.7,46.1v93.4C309.8,603.3,289.8,623.9,265.1,623.9z"/>
			
				<image style="overflow:visible;enable-background:new    ;" width="145" height="110" xlink:href="ACB4ADAF7A7C0999.png"  transform="matrix(1.7906 0 0 1.8059 57.363 431.9)">
			</image>
			
				<radialGradient id="SVGID_51_" cx="267.1787" cy="1160.6221" r="104.413" gradientTransform="matrix(1.3213 0 0 -1.0636 174.4362 1882.5737)" gradientUnits="userSpaceOnUse">
				<stop  offset="0" style="stop-color:#04B8CC"/>
				<stop  offset="0.2933" style="stop-color:#05A1B3"/>
				<stop  offset="0.6471" style="stop-color:#035C66"/>
				<stop  offset="1" style="stop-color:#012E33"/>
			</radialGradient>
			<path class="st73" d="M627.6,740.9H427.3c-31.6,0-57.3-20.6-57.3-46.1v-93.4c0-25.5,25.6-46.1,57.3-46.1h200.3
				c31.6,0,57.3,20.6,57.3,46.1v93.4C684.9,720.3,659.2,740.9,627.6,740.9z"/>
			
				<image style="overflow:visible;enable-background:new    ;" width="185" height="110" xlink:href="ACB4ADAF7A7C099B.png"  transform="matrix(1.7906 0 0 1.8059 361.7596 549.2859)">
			</image>
			<line class="st74" x1="522.2" y1="606.1" x2="522.2" y2="690.1"/>
		</g>
	</g>
	<g>
		<rect x="559" y="608.2" class="st75" width="79.2" height="79.9"/>
		<g>
			<g>
				<path class="st71" d="M585.2,631.1h9.9l11.5,36.8h-8.7l-4.8-18.6c-1-3.7-2-8-3-11.9h-0.2c-0.9,3.9-1.9,8.2-2.9,11.9l-4.8,18.6
					h-8.4L585.2,631.1z M581.3,652.6h17.5v6.5h-17.5V652.6z"/>
				<path class="st71" d="M609.1,631.4c0-2.5,2-4.3,4.8-4.3s4.8,1.8,4.8,4.3c0,2.5-2,4.3-4.8,4.3S609.1,633.9,609.1,631.4z
					 M609.8,639.9h8.2v28h-8.2V639.9z"/>
			</g>
		</g>
	</g>
	<g>
		<ellipse class="st76" cx="465.6" cy="649.8" rx="13.4" ry="13.8"/>
		<path class="st76" d="M452.2,636v-27.7h-13.4c-7.4,0-13.4,6.2-13.4,13.8s6,13.8,13.4,13.8L452.2,636z"/>
		<path class="st76" d="M452.2,663.7V636h-13.4c-7.4,0-13.4,6.2-13.4,13.8c0,7.6,6,13.8,13.4,13.8L452.2,663.7z M452.2,636v-27.7
			h13.4c7.4,0,13.4,6.2,13.4,13.8s-6,13.8-13.4,13.8L452.2,636z"/>
		<path class="st76" d="M452.2,663.7v13.8c0,7.6-6,13.8-13.4,13.8c-7.4,0-13.4-6.2-13.4-13.8s6-13.8,13.4-13.8c0,0,0,0,0,0
			L452.2,663.7z"/>
	</g>
	<g>
		<g>
			<polygon class="st77" points="282.5,568.4 280.6,568.4 280.6,567.1 281.3,567.1 281.3,566.5 282.5,566.5 			"/>
			<path class="st77" d="M278.1,568.4h-2.5v-1.3h2.5V568.4z M273.1,568.4h-2.5v-1.3h2.5V568.4z M268,568.4h-2.5v-1.3h2.5V568.4z
				 M263,568.4h-2.5v-1.3h2.5V568.4z M257.9,568.4h-2.5v-1.3h2.5V568.4z M252.9,568.4h-2.5v-1.3h2.5V568.4z M247.9,568.4h-2.5v-1.3
				h2.5V568.4z M242.8,568.4h-2.5v-1.3h2.5V568.4z M237.8,568.4h-2.5v-1.3h2.5V568.4z M232.7,568.4h-2.5v-1.3h2.5V568.4z
				 M227.7,568.4h-2.5v-1.3h2.5V568.4z M222.6,568.4h-2.5v-1.3h2.5V568.4z M217.6,568.4h-2.5v-1.3h2.5V568.4z"/>
			<polygon class="st77" points="212.5,568.4 210.7,568.4 210.7,566.5 211.9,566.5 211.9,567.1 212.5,567.1 			"/>
			<path class="st77" d="M211.9,564h-1.2v-2.5h1.2V564z M211.9,558.9h-1.2v-2.5h1.2V558.9z M211.9,553.8h-1.2v-2.5h1.2V553.8z
				 M211.9,548.7h-1.2v-2.5h1.2V548.7z M211.9,543.6h-1.2v-2.5h1.2V543.6z M211.9,538.5h-1.2V536h1.2V538.5z M211.9,533.4h-1.2v-2.5
				h1.2V533.4z M211.9,528.3h-1.2v-2.5h1.2V528.3z M211.9,523.3h-1.2v-2.5h1.2V523.3z M211.9,518.2h-1.2v-2.5h1.2V518.2z
				 M211.9,513.1h-1.2v-2.5h1.2V513.1z M211.9,508h-1.2v-2.5h1.2V508z M211.9,502.9h-1.2v-2.5h1.2V502.9z"/>
			<polygon class="st77" points="211.9,497.8 210.7,497.8 210.7,495.9 212.5,495.9 212.5,497.2 211.9,497.2 			"/>
			<path class="st77" d="M278.1,497.2h-2.5v-1.3h2.5V497.2z M273.1,497.2h-2.5v-1.3h2.5V497.2z M268,497.2h-2.5v-1.3h2.5V497.2z
				 M263,497.2h-2.5v-1.3h2.5V497.2z M257.9,497.2h-2.5v-1.3h2.5V497.2z M252.9,497.2h-2.5v-1.3h2.5V497.2z M247.9,497.2h-2.5v-1.3
				h2.5V497.2z M242.8,497.2h-2.5v-1.3h2.5V497.2z M237.8,497.2h-2.5v-1.3h2.5V497.2z M232.7,497.2h-2.5v-1.3h2.5V497.2z
				 M227.7,497.2h-2.5v-1.3h2.5V497.2z M222.6,497.2h-2.5v-1.3h2.5V497.2z M217.6,497.2h-2.5v-1.3h2.5V497.2z"/>
			<polygon class="st77" points="282.5,497.8 281.3,497.8 281.3,497.2 280.6,497.2 280.6,495.9 282.5,495.9 			"/>
			<path class="st77" d="M282.5,564h-1.2v-2.5h1.2V564z M282.5,558.9h-1.2v-2.5h1.2V558.9z M282.5,553.8h-1.2v-2.5h1.2V553.8z
				 M282.5,548.7h-1.2v-2.5h1.2V548.7z M282.5,543.6h-1.2v-2.5h1.2V543.6z M282.5,538.5h-1.2V536h1.2V538.5z M282.5,533.4h-1.2v-2.5
				h1.2V533.4z M282.5,528.3h-1.2v-2.5h1.2V528.3z M282.5,523.3h-1.2v-2.5h1.2V523.3z M282.5,518.2h-1.2v-2.5h1.2V518.2z
				 M282.5,513.1h-1.2v-2.5h1.2V513.1z M282.5,508h-1.2v-2.5h1.2V508z M282.5,502.9h-1.2v-2.5h1.2V502.9z"/>
		</g>
		<g>
			<rect x="206.9" y="563.3" class="st78" width="8.8" height="8.9"/>
			<path class="st79" d="M216.3,572.8h-10v-10.1h10V572.8z M207.5,571.6h7.6V564h-7.6V571.6z"/>
		</g>
		<g>
			<rect x="206.9" y="527.7" class="st78" width="8.8" height="8.9"/>
			<path class="st79" d="M216.3,537.2h-10v-10.1h10V537.2z M207.5,536h7.6v-7.6h-7.6V536z"/>
		</g>
		<g>
			<rect x="206.9" y="492.1" class="st78" width="8.8" height="8.9"/>
			<path class="st79" d="M216.3,501.6h-10v-10.1h10V501.6z M207.5,500.4h7.6v-7.6h-7.6V500.4z"/>
		</g>
		<g>
			<rect x="277.5" y="563.3" class="st78" width="8.8" height="8.9"/>
			<path class="st79" d="M286.9,572.8h-10v-10.1h10V572.8z M278.1,571.6h7.6V564h-7.6V571.6z"/>
		</g>
		<g>
			<rect x="277.5" y="527.7" class="st78" width="8.8" height="8.9"/>
			<path class="st79" d="M286.9,537.2h-10v-10.1h10V537.2z M278.1,536h7.6v-7.6h-7.6V536z"/>
		</g>
		<g>
			<rect x="277.5" y="492.1" class="st78" width="8.8" height="8.9"/>
			<path class="st79" d="M286.9,501.6h-10v-10.1h10V501.6z M278.1,500.4h7.6v-7.6h-7.6V500.4z"/>
		</g>
		<g>
			<rect x="242.2" y="492.1" class="st78" width="8.8" height="8.9"/>
			<path class="st79" d="M251.6,501.6h-10v-10.1h10V501.6z M242.8,500.4h7.6v-7.6h-7.6V500.4z"/>
		</g>
		<g>
			<rect x="242.2" y="563.3" class="st78" width="8.8" height="8.9"/>
			<path class="st79" d="M251.6,572.8h-10v-10.1h10V572.8z M242.8,571.6h7.6V564h-7.6V571.6z"/>
		</g>
		<g>
			<path class="st80" d="M247.6,540.5h-12.5l-4.9,13.7h4.7v1.2h-9.6v-1.2h3l16.1-43.7h5.2l15.9,43.7h2.9v1.2h-20.6v-1.2h4.5
				L247.6,540.5z M235.7,539.1h11.4l-5.5-16.7L235.7,539.1z"/>
		</g>
	</g>
	<g>
		<g>
			<path class="st81" d="M148.6,529.7c0,0-0.3,14.4-9.4,30.6h-12.8c-9.1-16.3-9.4-30.6-9.4-30.6c13.2-7.4,13.5-24.1,13.5-24.1h1.3
				V532c-1.8,0.4-3.1,2-3.1,4c0,2.2,1.8,4.1,4,4.1c2.2,0,4-1.8,4-4.1c0-1.9-1.3-3.5-3.1-4v-26.4h1.3
				C135,505.6,135.4,522.3,148.6,529.7z"/>
			<rect x="123.3" y="558.8" class="st82" width="19" height="8.1"/>
		</g>
		<path class="st81" d="M176.8,548.7h-1.3c0-23.8-19.2-43.1-42.8-43.1S90,524.9,90,548.7h-1.3c0-24.5,19.8-44.4,44.1-44.4
			C157.1,504.3,176.8,524.2,176.8,548.7z"/>
		<rect x="88.4" y="503.8" class="st81" width="87.8" height="1.3"/>
		<g>
			<rect x="84.9" y="544.2" class="st71" width="9" height="9.1"/>
			<path class="st81" d="M94.5,553.9H84.2v-10.4h10.3V553.9z M85.5,552.6h7.8v-7.8h-7.8V552.6z"/>
		</g>
		<g>
			<rect x="84.9" y="499.9" class="st71" width="9" height="9.1"/>
			<path class="st81" d="M94.5,509.6H84.2v-10.4h10.3V509.6z M85.5,508.3h7.8v-7.8h-7.8V508.3z"/>
		</g>
		<g>
			<rect x="171.7" y="544.2" class="st71" width="9" height="9.1"/>
			<path class="st81" d="M181.4,553.9h-10.3v-10.4h10.3V553.9z M172.3,552.6h7.8v-7.8h-7.8V552.6z"/>
		</g>
		<g>
			<rect x="171.7" y="499.9" class="st71" width="9" height="9.1"/>
			<path class="st81" d="M181.4,509.6h-10.3v-10.4h10.3V509.6z M172.3,508.3h7.8v-7.8h-7.8V508.3z"/>
		</g>
	</g>
	<g>
		<rect x="448.7" y="338.1" class="st83" width="175.7" height="105.1"/>
		<g>
			<polygon class="st79" points="458,347.5 452.8,342.2 453.3,341.7 458.5,347 			"/>
			<polygon class="st79" points="453.3,347.5 452.8,347 458,341.7 458.5,342.2 			"/>
		</g>
		<g>
			<g>
				<polygon class="st79" points="616.5,347.8 613.4,344.6 613.9,344.1 617,347.3 				"/>
				<polygon class="st79" points="613.9,345.1 613.4,344.6 616.5,341.4 617,341.9 				"/>
			</g>
			<g>
				<polygon class="st79" points="620,347.8 616.8,344.6 617.3,344.1 620.5,347.3 				"/>
				<polygon class="st79" points="617.3,345.1 616.8,344.6 620,341.4 620.5,341.9 				"/>
			</g>
		</g>
		<rect x="479.8" y="354.8" class="st79" width="0.7" height="69.1"/>
		<rect x="505.1" y="354.8" class="st79" width="0.7" height="69.1"/>
		<g>
			<path class="st79" d="M467.3,361.2c-5.1,0-7.3,4.2-7.3,4.2s2.5,4.2,7.3,4.2c4.9,0,7.4-4.2,7.4-4.2S472.3,361.2,467.3,361.2z
				 M467.3,368.8c-1.9,0-3.4-1.5-3.4-3.4c0-1.9,1.5-3.4,3.4-3.4c1.9,0,3.4,1.5,3.4,3.4C470.7,367.3,469.1,368.8,467.3,368.8z"/>
			<path class="st79" d="M469.9,365.4c0,1.5-1.2,2.6-2.6,2.6c-1.5,0-2.6-1.2-2.6-2.6c0-1.5,1.2-2.6,2.6-2.6
				C468.7,362.7,469.9,363.9,469.9,365.4z"/>
		</g>
		<g>
			<path class="st79" d="M467.3,385.2c-5.1,0-7.3,4.2-7.3,4.2s2.5,4.2,7.3,4.2c4.9,0,7.4-4.2,7.4-4.2S472.3,385.2,467.3,385.2z
				 M467.3,392.8c-1.9,0-3.4-1.5-3.4-3.4c0-1.9,1.5-3.4,3.4-3.4c1.9,0,3.4,1.5,3.4,3.4C470.7,391.3,469.1,392.8,467.3,392.8z"/>
			<path class="st79" d="M469.9,389.4c0,1.5-1.2,2.6-2.6,2.6c-1.5,0-2.6-1.2-2.6-2.6c0-1.5,1.2-2.6,2.6-2.6
				C468.7,386.8,469.9,387.9,469.9,389.4z"/>
		</g>
		<g>
			<path class="st79" d="M467.3,408.2c-5.1,0-7.3,4.2-7.3,4.2s2.5,4.2,7.3,4.2c4.9,0,7.4-4.2,7.4-4.2S472.3,408.2,467.3,408.2z
				 M467.3,415.8c-1.9,0-3.4-1.5-3.4-3.4c0-1.9,1.5-3.4,3.4-3.4c1.9,0,3.4,1.5,3.4,3.4C470.7,414.3,469.1,415.8,467.3,415.8z"/>
			<path class="st79" d="M469.9,412.4c0,1.5-1.2,2.6-2.6,2.6c-1.5,0-2.6-1.2-2.6-2.6c0-1.5,1.2-2.6,2.6-2.6
				C468.7,409.7,469.9,410.9,469.9,412.4z"/>
		</g>
		<rect x="456" y="377.5" class="st79" width="161.2" height="0.7"/>
		<rect x="456" y="400.6" class="st79" width="161.2" height="0.7"/>
		<g>
			<path class="st79" d="M524.5,370.4L524.5,370.4c-0.2,0-0.4-0.2-0.4-0.4V359c0-0.2,0.2-0.4,0.4-0.4c0.2,0,0.4,0.2,0.4,0.4v10.5
				h5.6c0.2,0,0.4,0.2,0.4,0.4c0,0.2-0.2,0.4-0.4,0.4H524.5z"/>
			<path class="st79" d="M540,362.5v7.4c0,0.2-0.2,0.4-0.4,0.4c-0.2,0-0.4-0.2-0.4-0.4v-1.2c-0.7,1-1.8,1.6-3.1,1.6
				c-2.1,0-3.9-1.9-3.9-4.1c0-2.2,1.7-4.1,3.9-4.1c1.2,0,2.4,0.6,3.1,1.6v-1.2c0-0.2,0.2-0.4,0.4-0.4
				C539.9,362.1,540,362.3,540,362.5z M539.2,366.3c0-1.8-1.4-3.3-3.1-3.3c-1.7,0-3.1,1.5-3.1,3.3c0,1.8,1.4,3.3,3.1,3.3
				C537.9,369.6,539.2,368.1,539.2,366.3z"/>
			<path class="st79" d="M543.3,362.5c0-0.2,0.2-0.4,0.4-0.4c0.2,0,0.4,0.2,0.4,0.4v4.5c0,1.4,1.1,2.5,2.5,2.5
				c1.4,0,2.5-1.1,2.5-2.5v-4.5c0-0.1,0-0.2,0.1-0.2c0,0,0,0,0,0c0,0,0,0,0,0c0,0,0.1-0.1,0.1-0.1h0c0,0,0,0,0,0h0.1h0
				c0.1,0,0.1,0,0.2,0.1c0,0,0.1,0.1,0.1,0.1c0,0,0,0.1,0,0.2v4.5v0.2v2.6c0,2.1-1.7,3.9-3.9,3.9c-0.6,0-1.2-0.2-1.7-0.4
				c-0.2-0.1-0.3-0.4-0.2-0.5c0.1-0.2,0.3-0.3,0.5-0.2c0.4,0.2,0.9,0.3,1.3,0.3c1.7,0,3.1-1.4,3.1-3.1v-0.5
				c-0.6,0.7-1.5,1.2-2.5,1.2c-1.8,0-3.3-1.5-3.3-3.4V362.5z"/>
			<path class="st79" d="M552.7,366.3c0-2.3,1.8-4.1,4-4.1c2.1,0,3.8,1.7,3.9,3.8v0v0.1c0,0.2-0.2,0.4-0.4,0.4h-6.7
				c0.1,1.8,1.5,3.2,3.2,3.2c1.1,0,2.1-0.6,2.6-1.5c0.1-0.2,0.4-0.2,0.5-0.1c0.2,0.1,0.3,0.4,0.1,0.6c-0.7,1.1-1.9,1.9-3.3,1.9
				C554.5,370.4,552.7,368.5,552.7,366.3z M553.6,365.6h6.2c-0.3-1.5-1.6-2.7-3.1-2.7C555.2,362.9,553.9,364.1,553.6,365.6z"/>
			<path class="st79" d="M563.1,362.6c0-0.2,0.2-0.4,0.4-0.4c0.2,0,0.4,0.2,0.4,0.4v1.8c0-0.1,0.1-0.1,0.1-0.2c0.6-1,1.7-2,3.3-2
				c0.2,0,0.4,0.2,0.4,0.4c0,0.2-0.2,0.4-0.4,0.4c-1.1,0-1.8,0.6-2.4,1.3c-0.6,0.7-0.9,1.6-1,1.9c0,0.1,0,0.1,0,0.1v3.6
				c0,0.2-0.2,0.4-0.4,0.4c-0.2,0-0.4-0.2-0.4-0.4V362.6z"/>
			<path class="st79" d="M576.7,359.8l-1.6,1c-0.1,0-0.1,0.1-0.2,0.1c-0.1,0-0.3-0.1-0.3-0.2c-0.1-0.2,0-0.5,0.1-0.6l2.2-1.4
				c0.2-0.1,0.4,0,0.5,0.2c0.1,0.1,0.1,0.2,0.1,0.3V370c0,0.2-0.2,0.4-0.4,0.4c-0.2,0-0.4-0.2-0.4-0.4V359.8z"/>
		</g>
		<g>
			<path class="st79" d="M524.5,394.6L524.5,394.6c-0.2,0-0.4-0.2-0.4-0.4v-10.9c0-0.2,0.2-0.4,0.4-0.4c0.2,0,0.4,0.2,0.4,0.4v10.5
				h5.6c0.2,0,0.4,0.2,0.4,0.4c0,0.2-0.2,0.4-0.4,0.4H524.5z"/>
			<path class="st79" d="M540,386.7v7.4c0,0.2-0.2,0.4-0.4,0.4c-0.2,0-0.4-0.2-0.4-0.4v-1.2c-0.7,1-1.8,1.6-3.1,1.6
				c-2.1,0-3.9-1.9-3.9-4.1c0-2.2,1.7-4.1,3.9-4.1c1.2,0,2.4,0.6,3.1,1.6v-1.2c0-0.2,0.2-0.4,0.4-0.4
				C539.9,386.3,540,386.5,540,386.7z M539.2,390.5c0-1.8-1.4-3.3-3.1-3.3c-1.7,0-3.1,1.5-3.1,3.3c0,1.8,1.4,3.3,3.1,3.3
				C537.9,393.8,539.2,392.3,539.2,390.5z"/>
			<path class="st79" d="M543.3,386.7c0-0.2,0.2-0.4,0.4-0.4c0.2,0,0.4,0.2,0.4,0.4v4.5c0,1.4,1.1,2.5,2.5,2.5
				c1.4,0,2.5-1.1,2.5-2.5v-4.5c0-0.1,0-0.2,0.1-0.2c0,0,0,0,0,0c0,0,0,0,0,0c0,0,0.1-0.1,0.1-0.1h0c0,0,0,0,0,0h0.1h0
				c0.1,0,0.1,0,0.2,0.1c0,0,0.1,0.1,0.1,0.1c0,0,0,0.1,0,0.2v4.5v0.2v2.6c0,2.1-1.7,3.9-3.9,3.9c-0.6,0-1.2-0.2-1.7-0.4
				c-0.2-0.1-0.3-0.4-0.2-0.5c0.1-0.2,0.3-0.3,0.5-0.2c0.4,0.2,0.9,0.3,1.3,0.3c1.7,0,3.1-1.4,3.1-3.1v-0.5
				c-0.6,0.7-1.5,1.2-2.5,1.2c-1.8,0-3.3-1.5-3.3-3.4V386.7z"/>
			<path class="st79" d="M552.7,390.5c0-2.3,1.8-4.1,4-4.1c2.1,0,3.8,1.7,3.9,3.8v0v0.1c0,0.2-0.2,0.4-0.4,0.4h-6.7
				c0.1,1.8,1.5,3.2,3.2,3.2c1.1,0,2.1-0.6,2.6-1.5c0.1-0.2,0.4-0.2,0.5-0.1c0.2,0.1,0.3,0.4,0.1,0.6c-0.7,1.1-1.9,1.9-3.3,1.9
				C554.5,394.6,552.7,392.7,552.7,390.5z M553.6,389.8h6.2c-0.3-1.5-1.6-2.7-3.1-2.7C555.2,387.1,553.9,388.3,553.6,389.8z"/>
			<path class="st79" d="M563.1,386.8c0-0.2,0.2-0.4,0.4-0.4c0.2,0,0.4,0.2,0.4,0.4v1.8c0-0.1,0.1-0.1,0.1-0.2c0.6-1,1.7-2,3.3-2
				c0.2,0,0.4,0.2,0.4,0.4c0,0.2-0.2,0.4-0.4,0.4c-1.1,0-1.8,0.6-2.4,1.3c-0.6,0.7-0.9,1.6-1,1.9c0,0.1,0,0.1,0,0.1v3.6
				c0,0.2-0.2,0.4-0.4,0.4c-0.2,0-0.4-0.2-0.4-0.4V386.8z"/>
			<path class="st79" d="M574.7,393.8l5.4-5c0.6-0.6,1-1.4,1-2.2c0-0.7-0.3-1.4-0.8-2c-0.6-0.7-1.4-1-2.2-1c-0.7,0-1.4,0.3-2,0.8
				l-0.6,0.5c-0.2,0.2-0.4,0.2-0.6,0c-0.2-0.2-0.1-0.4,0-0.6l0.6-0.5c0.7-0.7,1.7-1,2.6-1c1,0,2,0.4,2.8,1.3c0.7,0.7,1,1.7,1,2.6
				c0,1-0.4,2.1-1.2,2.9l-4.7,4.2h5.5c0.2,0,0.4,0.2,0.4,0.4c0,0.2-0.2,0.4-0.4,0.4h-6.5H575c-0.1,0-0.2,0-0.3-0.1
				C574.6,394.3,574.6,394,574.7,393.8z"/>
		</g>
		<g>
			<path class="st79" d="M524.5,418.8L524.5,418.8c-0.2,0-0.4-0.2-0.4-0.4v-10.9c0-0.2,0.2-0.4,0.4-0.4c0.2,0,0.4,0.2,0.4,0.4v10.5
				h5.6c0.2,0,0.4,0.2,0.4,0.4c0,0.2-0.2,0.4-0.4,0.4H524.5z"/>
			<path class="st79" d="M540,410.9v7.4c0,0.2-0.2,0.4-0.4,0.4c-0.2,0-0.4-0.2-0.4-0.4v-1.2c-0.7,1-1.8,1.6-3.1,1.6
				c-2.1,0-3.9-1.9-3.9-4.1c0-2.2,1.7-4.1,3.9-4.1c1.2,0,2.4,0.6,3.1,1.6v-1.2c0-0.2,0.2-0.4,0.4-0.4
				C539.9,410.5,540,410.7,540,410.9z M539.2,414.7c0-1.8-1.4-3.3-3.1-3.3c-1.7,0-3.1,1.5-3.1,3.3c0,1.8,1.4,3.3,3.1,3.3
				C537.9,418,539.2,416.5,539.2,414.7z"/>
			<path class="st79" d="M543.3,410.9c0-0.2,0.2-0.4,0.4-0.4c0.2,0,0.4,0.2,0.4,0.4v4.5c0,1.4,1.1,2.5,2.5,2.5
				c1.4,0,2.5-1.1,2.5-2.5v-4.5c0-0.1,0-0.2,0.1-0.2c0,0,0,0,0,0c0,0,0,0,0,0c0,0,0.1-0.1,0.1-0.1h0c0,0,0,0,0,0h0.1h0
				c0.1,0,0.1,0,0.2,0.1c0,0,0.1,0.1,0.1,0.1c0,0,0,0.1,0,0.2v4.5v0.2v2.6c0,2.1-1.7,3.9-3.9,3.9c-0.6,0-1.2-0.2-1.7-0.4
				c-0.2-0.1-0.3-0.4-0.2-0.5c0.1-0.2,0.3-0.3,0.5-0.2c0.4,0.2,0.9,0.3,1.3,0.3c1.7,0,3.1-1.4,3.1-3.1v-0.5
				c-0.6,0.7-1.5,1.2-2.5,1.2c-1.8,0-3.3-1.5-3.3-3.4V410.9z"/>
			<path class="st79" d="M552.7,414.7c0-2.3,1.8-4.1,4-4.1c2.1,0,3.8,1.7,3.9,3.8v0v0.1c0,0.2-0.2,0.4-0.4,0.4h-6.7
				c0.1,1.8,1.5,3.2,3.2,3.2c1.1,0,2.1-0.6,2.6-1.5c0.1-0.2,0.4-0.2,0.5-0.1c0.2,0.1,0.3,0.4,0.1,0.6c-0.7,1.1-1.9,1.9-3.3,1.9
				C554.5,418.8,552.7,416.9,552.7,414.7z M553.6,414h6.2c-0.3-1.5-1.6-2.7-3.1-2.7C555.2,411.4,553.9,412.5,553.6,414z"/>
			<path class="st79" d="M563.1,411c0-0.2,0.2-0.4,0.4-0.4c0.2,0,0.4,0.2,0.4,0.4v1.8c0-0.1,0.1-0.1,0.1-0.2c0.6-1,1.7-2,3.3-2
				c0.2,0,0.4,0.2,0.4,0.4c0,0.2-0.2,0.4-0.4,0.4c-1.1,0-1.8,0.6-2.4,1.3c-0.6,0.7-0.9,1.6-1,1.9c0,0.1,0,0.1,0,0.1v3.6
				c0,0.2-0.2,0.4-0.4,0.4c-0.2,0-0.4-0.2-0.4-0.4V411z"/>
			<path class="st79" d="M581.8,407.8l-3,3.1c0.7,0.2,1.4,0.5,2,1.1c0.8,0.8,1.1,1.8,1.1,2.8c0,1-0.4,2-1.2,2.8
				c-0.8,0.8-1.8,1.2-2.8,1.2c-1,0-2-0.4-2.8-1.2c-0.2-0.2-0.2-0.4,0-0.6c0.1-0.2,0.4-0.2,0.6,0c0.6,0.6,1.4,0.9,2.2,0.9
				c0.8,0,1.6-0.3,2.2-0.9c0.6-0.6,0.9-1.4,0.9-2.2c0-0.8-0.3-1.6-0.9-2.2c-0.6-0.6-1.4-0.9-2.2-0.9c-0.1,0-0.2-0.1-0.3-0.2h0
				c-0.2-0.2-0.2-0.4,0-0.6l2.9-3h-4.5c-0.2,0-0.4-0.2-0.4-0.4c0-0.2,0.2-0.4,0.4-0.4h5.4c0.2,0,0.4,0.2,0.4,0.4c0,0.1,0,0.1,0,0.2
				C581.9,407.7,581.8,407.7,581.8,407.8z"/>
		</g>
		<rect x="507.5" y="379.4" class="st84" width="5.2" height="19.9"/>
		<rect x="507.5" y="402.4" class="st85" width="5.2" height="19.9"/>
		<rect x="507.5" y="355.4" class="st86" width="5.2" height="19.9"/>
		<rect x="456" y="434.7" class="st79" width="30.6" height="0.7"/>
		<g>
			<rect x="487.5" y="364.1" class="st79" width="10.6" height="9"/>
			<path class="st79" d="M496.8,365.1h-1.2v-2.4c0-2.6-0.9-3.9-2.7-3.9c-2.9,0-3,3.5-3,3.6v2.7h-1.2v-2.7c0-2.3,1.3-4.9,4.2-4.9
				c2.5,0,3.9,1.8,3.9,5.2V365.1z"/>
		</g>
		<path class="st79" d="M603.1,370.8c-3,0-5.4-2.5-5.4-5.5c0-3,2.4-5.5,5.4-5.5c3,0,5.4,2.5,5.4,5.5
			C608.5,368.4,606.1,370.8,603.1,370.8z M603.1,360.6c-2.6,0-4.7,2.1-4.7,4.8c0,2.6,2.1,4.8,4.7,4.8c2.6,0,4.7-2.1,4.7-4.8
			C607.8,362.7,605.7,360.6,603.1,360.6z"/>
		<path class="st79" d="M603.1,394.9c-3,0-5.4-2.5-5.4-5.5c0-3,2.4-5.5,5.4-5.5c3,0,5.4,2.5,5.4,5.5
			C608.5,392.4,606.1,394.9,603.1,394.9z M603.1,384.6c-2.6,0-4.7,2.1-4.7,4.8c0,2.6,2.1,4.8,4.7,4.8c2.6,0,4.7-2.1,4.7-4.8
			C607.8,386.8,605.7,384.6,603.1,384.6z"/>
		<path class="st79" d="M603.1,418.9c-3,0-5.4-2.5-5.4-5.5c0-3,2.4-5.5,5.4-5.5c3,0,5.4,2.5,5.4,5.5
			C608.5,416.5,606.1,418.9,603.1,418.9z M603.1,408.7c-2.6,0-4.7,2.1-4.7,4.8c0,2.6,2.1,4.8,4.7,4.8c2.6,0,4.7-2.1,4.7-4.8
			C607.8,410.8,605.7,408.7,603.1,408.7z"/>
	</g>
	<g>
		<g>
			<path class="st59" d="M289.6,78c-2.2,0.4-2.4,0.5-2.4,3v3c0,1.4,0,2.6,0.2,3.7c-2.1,0.4-5.8,1.3-8.9,1.3
				c-8.7,0-13.8-5.4-13.8-12.9c0-8.3,6.7-12.8,14.6-12.8c3.3,0,6.5,0.8,7.7,0.9c0.1,1.6,0.3,4.3,0.6,6.4l-1.3,0.3
				c-0.9-3.2-2.2-4.8-4.5-5.6c-0.9-0.3-2.3-0.5-3.3-0.5c-5,0-8.5,4-8.5,10.6c0,6.4,2.6,12,9.2,12c0.9,0,2-0.2,2.7-0.6
				c0.6-0.4,1-0.9,1-2.3v-3.3c0-2.7-0.4-3-3.8-3.3v-1.3h10.7V78z"/>
			<path class="st59" d="M301.5,88.4H292v-1.2c2.1-0.2,2.3-0.4,2.3-2.8v-8.2c0-2.1-0.2-2.3-2.1-2.6v-1.1c2.2-0.3,4.1-0.7,6.3-1.5
				c0,1.3,0,2.9,0,4.1c1.6-2.4,3-4,4.7-4c1.4,0,2.4,0.9,2.4,2.1c0,1.5-1.1,2.5-1.7,2.8c-0.5,0.2-0.8,0.1-1.1-0.1
				c-0.6-0.5-1.1-1.1-1.7-1.1c-0.6,0-1.7,0.7-2.5,2.3v7.2c0,2.4,0.2,2.5,3,2.8V88.4z"/>
			<path class="st59" d="M319.2,88.9c-0.9,0-1.7-0.3-2.1-0.8c-0.5-0.5-0.8-1-1-1.5c-1.5,1-3.3,2.3-4.2,2.3c-3,0-4.9-2.4-4.9-4.8
				c0-2,0.9-3,3-3.7c2.2-0.8,5.2-1.8,6-2.5v-1.3c0-2.2-0.9-3.5-2.7-3.5c-0.7,0-1.2,0.3-1.6,0.8c-0.4,0.6-0.6,1.4-0.9,2.5
				c-0.2,0.9-0.7,1.1-1.4,1.1c-0.9,0-2-0.9-2-1.9c0-0.6,0.5-1.1,1.3-1.7c1.5-1,3.7-2.2,5.8-2.7c1.4,0,2.6,0.3,3.6,1.1
				c1.5,1.1,2,2.6,2,4.6v6.8c0,1.8,0.6,2.3,1.2,2.3c0.4,0,0.8-0.1,1.2-0.3l0.4,1.2L319.2,88.9z M316,79.3c-0.7,0.4-1.8,0.9-2.6,1.3
				c-1.3,0.6-2,1.3-2,2.6c0,2.1,1.5,2.9,2.4,2.9c0.7,0,1.5-0.2,2.2-0.9C316,83.5,316,81.1,316,79.3z"/>
			<path class="st59" d="M324.1,72.5c1.9-0.3,4.2-1,6.4-1.7c0,0.8,0,2,0,2.8c0.1-0.1,2.7-1.6,2.9-1.7c0.9-0.5,1.7-0.8,2.4-0.8
				c4.1,0,6.6,3.7,6.6,7.4c0,5.6-4.4,9.3-9.3,10.3c-1,0-1.9-0.2-2.5-0.5v4.7c0,2.4,0.2,2.6,2.9,2.9v1.2h-9.7v-1.2
				c2.3-0.2,2.5-0.5,2.5-2.8v-17c0-2.1-0.2-2.3-2.2-2.6V72.5z M330.5,85.6c0.8,0.8,2.2,1.4,3.3,1.4c2.4,0,4.1-2.6,4.1-6.7
				c0-4.5-2.3-6.4-4.5-6.4c-1.1,0-2.1,0.6-2.9,1.1V85.6z"/>
			<path class="st59" d="M355.1,88.4v-1.2c1.8-0.3,2-0.5,2-2.7V78c0-3-1.2-4.2-3-4.2c-1.1,0-2.2,0.4-3.2,1.4v9.3
				c0,2.2,0.2,2.4,2.1,2.7v1.2h-8.7v-1.2c2-0.2,2.4-0.4,2.4-2.8V66.6c0-1.8-0.2-2.3-2.4-2.6v-1.1c2.5-0.2,5-0.8,6.6-1.3
				c0,1.4,0,3,0,4.5v7.7c1.3-1.3,3.3-2.6,5.2-2.6c3.2,0,5.2,2.1,5.2,6.4v6.8c0,2.4,0.3,2.5,2.2,2.8v1.2H355.1z"/>
			<path class="st59" d="M365.5,88.4v-1.2c2.1-0.3,2.4-0.4,2.4-3.1v-7.5c0-2.5-0.2-2.6-2.1-2.9v-1.1c2.2-0.3,4.4-0.8,6.3-1.4
				c0,1.6,0,3.2,0,4.7v8.3c0,2.6,0.2,2.8,2.5,3.1v1.2H365.5z M369.7,68.3c-1.3,0-2.5-1.1-2.5-2.5c0-1.4,1.2-2.5,2.5-2.5
				c1.3,0,2.4,1,2.4,2.5C372.2,67.2,371.1,68.3,369.7,68.3z"/>
			<path class="st59" d="M390.9,84.8c-1.7,2.4-4.2,4-6.5,4c-5,0-8-3.9-8-8.1c0-2.9,1.4-5.5,3.8-7.3c2.3-1.8,4.6-2.3,6.3-2.3
				c1.5,0,2.7,0.5,3.4,0.9c0.5,0.4,0.7,0.8,0.7,1.3c0,1-1,2-1.6,2c-0.2,0-0.5-0.1-0.8-0.4c-1.5-1.3-2.7-1.8-3.9-1.8
				c-1.8,0-3.7,1.7-3.7,5.7c0,5.1,3.6,6.8,5.4,6.8c1.6,0,2.7-0.4,4.2-1.8L390.9,84.8z"/>
			<path class="st59" d="M412.5,63.8c5,0,8.5,1,10.8,3.3c1.9,1.8,3.3,4.4,3.3,8.2c0,4.4-1.8,7.8-4.7,10c-2.8,2.1-6.4,3.1-10.8,3.1
				h-9.8v-1.3c3-0.3,3.3-0.6,3.3-3.7V68.8c0-3.2-0.4-3.5-3.3-3.7v-1.3H412.5z M409.2,83.2c0,2.7,0.9,3.6,3.6,3.6
				c5.7,0,8.8-3.9,8.8-10.9c0-3.8-1.1-6.9-3.3-8.6c-1.6-1.4-3.7-1.9-6.2-1.9c-1.5,0-2.2,0.3-2.5,0.5c-0.3,0.3-0.4,0.9-0.4,2.1V83.2z
				"/>
			<path class="st59" d="M444,84.9c-2.3,3.3-5.2,4-6.7,4c-4.9,0-7.7-3.8-7.7-8.2c0-2.6,1.1-5.2,2.7-6.8c1.7-1.7,3.7-2.7,5.8-2.7
				c3.5,0,6.1,3,6,6.1c0,0.7-0.1,1.2-0.6,1.4c-0.7,0.2-5.9,0.5-9.8,0.6c0.1,4.4,2.6,6.5,5.3,6.5c1.5,0,2.9-0.6,4.3-1.8L444,84.9z
				 M437.2,72.7c-1.6,0-3,1.7-3.3,4.8c1.7,0,3.4,0,5.2-0.1c0.6,0,0.8-0.1,0.8-0.8C440,74.7,438.9,72.7,437.2,72.7z"/>
			<path class="st59" d="M456.5,76.4c-0.9-2.5-2-3.8-4-3.8c-1.1,0-2.1,0.8-2.1,2.2c0,1.4,1,2.2,3,3.1c3.1,1.4,5,2.7,5,5.5
				c0,3.7-3.4,5.5-6.6,5.5c-2,0-3.9-0.7-4.7-1.1c-0.2-1-0.5-3.4-0.6-4.7l1.2-0.2c0.8,2.4,2.2,4.5,4.7,4.5c1.4,0,2.3-0.9,2.3-2.2
				c0-1.4-0.7-2.2-2.9-3.3c-2.5-1.2-4.8-2.5-4.8-5.5c0-2.9,2.4-5.2,6.2-5.2c1.7,0,3.1,0.4,3.9,0.5c0.1,1,0.4,3.4,0.6,4.4L456.5,76.4
				z"/>
			<path class="st59" d="M460.6,88.4v-1.2c2.1-0.3,2.4-0.4,2.4-3.1v-7.5c0-2.5-0.2-2.6-2.1-2.9v-1.1c2.2-0.3,4.4-0.8,6.3-1.4
				c0,1.6,0,3.2,0,4.7v8.3c0,2.6,0.2,2.8,2.5,3.1v1.2H460.6z M464.9,68.3c-1.3,0-2.5-1.1-2.5-2.5c0-1.4,1.2-2.5,2.5-2.5
				c1.3,0,2.4,1,2.4,2.5C467.3,67.2,466.2,68.3,464.9,68.3z"/>
			<path class="st59" d="M477.2,82.6c-0.6,0.5-0.9,1.1-0.9,1.5c0,0.6,0.7,1.4,2.2,1.4c1.3,0,3,0,4.2,0c2.3,0,5.6,0.9,5.6,4.6
				c0,4.2-5,7.7-10,7.7c-4.7,0-6.9-2.5-7-4.6c0-0.9,0.3-1.5,1.1-2.1c0.9-0.7,2.1-1.6,2.9-2.2c-1.5-0.5-2.3-1.3-2.8-2.1
				c-0.4-0.6-0.6-1.4-0.5-1.9c1.6-0.7,3.1-1.8,3.9-2.7L477.2,82.6z M479,83c-4,0-6.8-2.3-6.8-5.7c0-4.2,3.9-6.1,7.1-6.1
				c1.5,0,2.7,0.3,4,1c1.6,0,4.2-0.3,5.1-0.5l0.2,0.3c-0.2,0.7-0.8,1.8-1.4,2.2c-0.6,0-1.7-0.2-2.3-0.2c0.6,0.7,1,1.8,1,3.2
				C486,81.1,482.5,83,479,83z M479.6,89.1c-1.9,0-2.8,0.2-3.4,0.7c-0.8,0.6-1.3,1.5-1.3,2.4c0,2,2,3.6,5.1,3.6c3.1,0,5-1.5,5-3.7
				c0-1.4-0.8-2.3-1.9-2.7C482.1,89.1,481.1,89.1,479.6,89.1z M479,72.5c-1.4,0-2.6,1.5-2.6,4.3c0,2.7,1.1,4.8,3,4.8
				c1.5,0,2.6-1.5,2.6-4.4C481.9,74.7,480.9,72.5,479,72.5z"/>
			<path class="st59" d="M500.4,88.4v-1.2c1.8-0.2,1.9-0.4,1.9-3v-6.4c0-2.7-1.2-3.8-2.9-3.8c-1.2,0-2.2,0.6-3.3,1.4v9.1
				c0,2.4,0.2,2.5,2,2.8v1.2h-8.5v-1.2c2.1-0.3,2.4-0.4,2.4-2.9v-7.9c0-2.3-0.3-2.5-2.1-2.8v-1.1c2.1-0.3,4.4-0.8,6.3-1.5
				c0,0.6,0,1.9,0,2.8c0.8-0.5,1.6-1.1,2.5-1.7c1.1-0.7,1.9-1,3-1c3,0,4.9,2.2,4.9,6v7.2c0,2.4,0.2,2.5,2.2,2.8v1.2H500.4z"/>
			<path class="st59" d="M510.8,88.4v-1.2c2.1-0.3,2.4-0.4,2.4-3.1v-7.5c0-2.5-0.2-2.6-2.1-2.9v-1.1c2.2-0.3,4.4-0.8,6.3-1.4
				c0,1.6,0,3.2,0,4.7v8.3c0,2.6,0.2,2.8,2.5,3.1v1.2H510.8z M515,68.3c-1.3,0-2.5-1.1-2.5-2.5c0-1.4,1.2-2.5,2.5-2.5
				c1.3,0,2.4,1,2.4,2.5C517.5,67.2,516.4,68.3,515,68.3z"/>
			<path class="st59" d="M532.4,88.4v-1.2c1.8-0.2,1.9-0.4,1.9-3v-6.4c0-2.7-1.2-3.8-2.9-3.8c-1.2,0-2.2,0.6-3.3,1.4v9.1
				c0,2.4,0.2,2.5,2,2.8v1.2h-8.5v-1.2c2.1-0.3,2.4-0.4,2.4-2.9v-7.9c0-2.3-0.3-2.5-2.1-2.8v-1.1c2.1-0.3,4.4-0.8,6.3-1.5
				c0,0.6,0,1.9,0,2.8c0.8-0.5,1.6-1.1,2.5-1.7c1.1-0.7,1.9-1,3-1c3,0,4.9,2.2,4.9,6v7.2c0,2.4,0.2,2.5,2.2,2.8v1.2H532.4z"/>
			<path class="st59" d="M548.5,82.6c-0.6,0.5-0.9,1.1-0.9,1.5c0,0.6,0.7,1.4,2.2,1.4c1.3,0,3,0,4.2,0c2.3,0,5.6,0.9,5.6,4.6
				c0,4.2-5,7.7-10,7.7c-4.7,0-6.9-2.5-7-4.6c0-0.9,0.3-1.5,1.1-2.1c0.9-0.7,2.1-1.6,2.9-2.2c-1.5-0.5-2.3-1.3-2.8-2.1
				c-0.4-0.6-0.6-1.4-0.5-1.9c1.6-0.7,3.1-1.8,3.8-2.7L548.5,82.6z M550.3,83c-4,0-6.8-2.3-6.8-5.7c0-4.2,3.9-6.1,7.1-6.1
				c1.5,0,2.7,0.3,4,1c1.6,0,4.2-0.3,5.1-0.5l0.2,0.3c-0.2,0.7-0.8,1.8-1.4,2.2c-0.6,0-1.7-0.2-2.3-0.2c0.6,0.7,1,1.8,1,3.2
				C557.3,81.1,553.8,83,550.3,83z M550.9,89.1c-1.9,0-2.8,0.2-3.4,0.7c-0.8,0.6-1.3,1.5-1.3,2.4c0,2,2,3.6,5.1,3.6
				c3.1,0,5-1.5,5-3.7c0-1.4-0.8-2.3-1.9-2.7C553.4,89.1,552.4,89.1,550.9,89.1z M550.3,72.5c-1.4,0-2.6,1.5-2.6,4.3
				c0,2.7,1.1,4.8,3,4.8c1.5,0,2.6-1.5,2.6-4.4C553.2,74.7,552.2,72.5,550.3,72.5z"/>
		</g>
	</g>
</g>
</svg>
